<svg width="220" height="172" viewBox="0 0 220 172" fill="none" xmlns="http://www.w3.org/2000/svg">
<path d="M9.83394 36.7363C10.1539 35.7249 10.059 34.6277 9.57012 33.6862C9.08119 32.7448 8.23829 32.0361 7.22684 31.7161C6.21539 31.396 5.11824 31.4909 4.17676 31.9799C3.23528 32.4688 2.52658 33.3117 2.20658 34.3232C1.88657 35.3346 1.98147 36.4318 2.4704 37.3732C2.95933 38.3147 3.80223 39.0234 4.81368 39.3434C5.82513 39.6634 6.92228 39.5685 7.86376 39.0796C8.80524 38.5907 9.51394 37.7478 9.83394 36.7363ZM39.0398 43.8788C39.5199 42.3616 39.3775 40.7159 38.6441 39.3037C37.9107 37.8915 36.6464 36.8284 35.1292 36.3484C33.612 35.8684 31.9663 36.0108 30.5541 36.7441C29.1418 37.4775 28.0788 38.7419 27.5988 40.2591C27.1188 41.7762 27.2611 43.422 27.9945 44.8342C28.7279 46.2464 29.9923 47.3095 31.5095 47.7895C33.0266 48.2695 34.6724 48.1271 36.0846 47.3937C37.4968 46.6603 38.5598 45.396 39.0398 43.8788ZM49.3927 17.7863C49.8727 16.2691 49.7304 14.6234 48.997 13.2112C48.2636 11.799 46.9992 10.7359 45.4821 10.2559C43.9649 9.77592 42.3192 9.91827 40.907 10.6517C39.4947 11.385 38.4317 12.6494 37.9517 14.1666C37.4717 15.6838 37.614 17.3295 38.3474 18.7417C39.0808 20.1539 40.3452 21.217 41.8623 21.697C43.3795 22.177 45.0252 22.0346 46.4375 21.3012C47.8497 20.5678 48.9127 19.3035 49.3927 17.7863ZM29.3117 28.2147C29.9517 26.1918 29.7619 23.9975 28.784 22.1146C27.8062 20.2316 26.1204 18.8142 24.0975 18.1742C22.0746 17.5342 19.8803 17.724 17.9973 18.7019C16.1144 19.6797 14.697 21.3655 14.057 23.3884C13.417 25.4113 13.6068 27.6056 14.5846 29.4886C15.5625 31.3715 17.2483 32.7889 19.2712 33.4289C21.2941 34.069 23.4884 33.8792 25.3713 32.9013C27.2543 31.9234 28.6717 30.2376 29.3117 28.2147ZM17.6767 11.9474C17.9967 10.9359 17.9018 9.83878 17.4129 8.8973C16.9239 7.95582 16.081 7.24712 15.0696 6.92712C14.0581 6.60711 12.961 6.70201 12.0195 7.19094C11.078 7.67987 10.3693 8.52277 10.0493 9.53422C9.72933 10.5457 9.82423 11.6428 10.3132 12.5843C10.8021 13.5258 11.645 14.2345 12.6564 14.5545C13.6679 14.8745 14.765 14.7796 15.7065 14.2907C16.648 13.8017 17.3567 12.9588 17.6767 11.9474Z" stroke="#FF7A00" stroke-width="4" stroke-linecap="round" stroke-linejoin="round"/>
<path d="M9.78546 33.5745L14.8057 30.9674M16.4701 15.7611L17.7737 18.2712M38.1752 18.4328L29.2147 21.891M29.7588 36.7471L27.1517 31.7268" stroke="#FF7A00" stroke-width="4" stroke-linecap="round" stroke-linejoin="round"/>
<path d="M27.776 60.52V121H14.624V60.52H27.776Z" fill="#FF7A00"/>
<path d="M49.624 60.52H62.776V110.632H87.16V121H49.624V60.52ZM94.7223 121V75.208H107.49V121H94.7223ZM101.154 65.416C98.9783 65.416 97.2823 64.808 96.0663 63.592C94.8503 62.312 94.2422 60.744 94.2422 58.888C94.2422 57.032 94.8503 55.496 96.0663 54.28C97.2823 53 98.9783 52.36 101.154 52.36C103.266 52.36 104.93 53 106.146 54.28C107.426 55.496 108.066 57.032 108.066 58.888C108.066 60.744 107.458 62.312 106.242 63.592C105.026 64.808 103.33 65.416 101.154 65.416ZM132.966 121H120.198V75.208H130.182L131.718 81.064C133.83 78.888 136.134 77.224 138.63 76.072C141.19 74.856 144.006 74.248 147.078 74.248C152.134 74.248 156.006 75.624 158.694 78.376C161.382 81.128 162.726 85.128 162.726 90.376V121H149.958V91.72C149.958 89.352 149.382 87.496 148.23 86.152C147.078 84.744 145.382 84.04 143.142 84.04C141.478 84.04 139.718 84.52 137.862 85.48C136.07 86.376 134.438 87.624 132.966 89.224V121ZM187.249 105.64V121H174.577V52.456H187.249V93.16L202.609 75.208H218.065L200.401 94.504L218.929 121H203.857L190.993 101.896L187.249 105.64Z" fill="black"/>
</svg>
