<svg width="548" height="204" viewBox="0 0 548 204" fill="none" xmlns="http://www.w3.org/2000/svg">
<path d="M430.022 174.124L406.585 175.249L406.397 155.468H395.616L394.96 175.999H373.96L375.741 110.093L398.054 111.124L396.647 144.78H407.054L407.147 109.53L428.522 110.093L430.022 174.124ZM490.351 109.999C488.944 120.999 487.741 131.952 486.741 142.858C485.741 153.733 484.788 164.687 483.882 175.718L464.663 177.124L465.507 169.905C464.882 170.624 464.147 171.249 463.304 171.78C462.491 172.312 461.616 172.749 460.679 173.093C459.741 173.405 458.772 173.64 457.772 173.796C456.772 173.921 455.819 173.968 454.913 173.937C452.788 173.905 450.788 173.499 448.913 172.718C447.038 171.905 445.319 170.843 443.757 169.53C442.194 168.187 440.788 166.64 439.538 164.89C438.288 163.108 437.226 161.249 436.351 159.312C435.507 157.343 434.851 155.343 434.382 153.312C433.944 151.28 433.726 149.312 433.726 147.405C433.726 144.593 433.772 141.687 433.866 138.687C433.991 135.655 434.194 132.624 434.476 129.593C434.757 126.562 435.116 123.562 435.554 120.593C436.022 117.624 436.601 114.78 437.288 112.062C441.101 112.249 444.929 112.421 448.772 112.577C452.616 112.733 456.444 112.78 460.257 112.718C459.538 115.437 458.819 118.171 458.101 120.921C457.413 123.64 456.788 126.39 456.226 129.171C455.663 131.921 455.21 134.687 454.866 137.468C454.522 140.249 454.351 143.062 454.351 145.905C454.351 146.562 454.382 147.499 454.444 148.718C454.507 149.937 454.663 151.14 454.913 152.327C455.194 153.515 455.601 154.562 456.132 155.468C456.694 156.343 457.476 156.78 458.476 156.78C459.663 156.78 460.726 156.28 461.663 155.28C462.601 154.249 463.429 152.874 464.147 151.155C464.866 149.437 465.476 147.452 465.976 145.202C466.507 142.952 466.944 140.608 467.288 138.171C467.663 135.702 467.96 133.218 468.179 130.718C468.397 128.218 468.554 125.874 468.647 123.687C468.772 121.468 468.851 119.483 468.882 117.733C468.944 115.983 468.976 114.624 468.976 113.655C468.976 113.03 468.96 112.421 468.929 111.827C468.897 111.233 468.851 110.624 468.788 109.999C470.819 110.062 472.835 110.108 474.835 110.14C476.835 110.171 478.851 110.187 480.882 110.187C482.444 110.187 484.007 110.187 485.569 110.187C487.163 110.155 488.757 110.093 490.351 109.999ZM547.726 159.312C547.726 161.905 547.241 164.14 546.272 166.015C545.335 167.89 544.069 169.483 542.476 170.796C540.882 172.108 539.038 173.187 536.944 174.03C534.882 174.843 532.726 175.483 530.476 175.952C528.226 176.421 525.96 176.733 523.679 176.89C521.429 177.046 519.319 177.124 517.351 177.124C515.413 177.124 513.397 177.046 511.304 176.89C509.241 176.765 507.179 176.53 505.116 176.187C503.054 175.843 501.022 175.39 499.022 174.827C497.022 174.233 495.132 173.499 493.351 172.624L493.257 112.249C495.007 111.53 496.866 110.89 498.835 110.327C500.804 109.733 502.804 109.249 504.835 108.874C506.897 108.468 508.944 108.171 510.976 107.983C513.007 107.765 514.976 107.655 516.882 107.655C519.101 107.655 521.335 107.796 523.585 108.077C525.866 108.358 528.054 108.827 530.147 109.483C532.241 110.14 534.194 110.999 536.007 112.062C537.819 113.093 539.397 114.374 540.741 115.905C542.116 117.437 543.179 119.218 543.929 121.249C544.71 123.28 545.101 125.624 545.101 128.28C545.101 130.03 544.851 131.671 544.351 133.202C543.851 134.733 543.132 136.108 542.194 137.327C541.257 138.546 540.116 139.593 538.772 140.468C537.429 141.312 535.913 141.937 534.226 142.343C536.257 142.874 538.101 143.655 539.757 144.687C541.444 145.718 542.866 146.968 544.022 148.437C545.21 149.905 546.116 151.562 546.741 153.405C547.397 155.249 547.726 157.218 547.726 159.312ZM523.913 132.593C523.913 131.687 523.726 130.921 523.351 130.296C522.976 129.64 522.507 129.108 521.944 128.702C521.413 128.296 520.819 127.999 520.163 127.812C519.538 127.624 518.976 127.53 518.476 127.53C517.851 127.53 517.241 127.624 516.647 127.812C516.054 127.999 515.476 128.218 514.913 128.468L514.632 138.874C515.351 138.874 516.241 138.812 517.304 138.687C518.366 138.562 519.382 138.296 520.351 137.89C521.351 137.452 522.194 136.827 522.882 136.015C523.569 135.171 523.913 134.03 523.913 132.593ZM517.257 147.874C516.351 147.874 515.476 147.968 514.632 148.155L514.444 158.843C514.913 158.937 515.366 159.03 515.804 159.124C516.272 159.187 516.726 159.218 517.163 159.218C517.819 159.218 518.538 159.155 519.319 159.03C520.101 158.874 520.835 158.593 521.522 158.187C522.21 157.749 522.772 157.171 523.21 156.452C523.679 155.733 523.913 154.78 523.913 153.593C523.913 152.405 523.679 151.437 523.21 150.687C522.772 149.937 522.226 149.358 521.569 148.952C520.913 148.515 520.194 148.233 519.413 148.108C518.632 147.952 517.913 147.874 517.257 147.874Z" fill="white"/>
<path d="M132.08 61.7937C123.122 59.6625 114.584 65.1261 112.377 74.4019L112.118 75.4932L100.67 76.8054C99.0657 69.5055 93.9105 63.0903 86.7927 60.2439L89.6486 48.2398C96.3615 48.1073 103.189 42.8133 105.006 35.1743C107.213 25.8984 102.05 17.1753 93.0918 15.0441C84.1335 12.9128 75.5955 18.3764 73.3887 27.6523C71.5713 35.2912 75.2831 43.0926 81.2172 46.2339L78.3614 58.238C71.2513 57.6995 63.7595 61.1059 58.513 66.776L48.8825 60.4492L49.1421 59.3579C51.3489 50.082 46.186 41.3589 37.2277 39.2277C28.2694 37.0964 19.7314 42.56 17.5246 51.8359C15.3178 61.1117 20.4807 69.8348 29.439 71.9661C35.2356 73.3451 40.7571 71.1996 44.4303 67.4613L54.0608 73.7881C51.3194 80.6307 51.6099 88.7712 55.0544 95.3559L45.3403 103.422C43.4921 101.83 41.5141 100.782 39.4063 100.281C30.448 98.1497 21.9099 103.613 19.7031 112.889C17.4963 122.165 22.6593 130.888 31.6176 133.019C40.5759 135.151 49.1139 129.687 51.3207 120.411C52.2294 116.592 51.9543 113.067 50.4955 109.837L60.2096 101.771C66.5485 107.891 74.9798 109.897 83.3958 107.287L88.4366 118.864C85.6797 121.091 83.8469 124.114 82.9382 127.933C80.7314 137.209 85.8943 145.932 94.8526 148.063C103.811 150.195 112.349 144.731 114.556 135.455C116.763 126.179 111.6 117.456 102.641 115.325C100.534 114.824 97.7689 114.742 95.9284 115.458L90.8876 103.881C96.9283 99.5527 100.854 92.4152 101.487 85.0712L112.935 83.759C114.531 88.751 119.022 93.2785 124.292 94.5322C133.25 96.6634 141.788 91.1999 143.995 81.924C146.202 72.6481 141.039 63.925 132.08 61.7937ZM32.0352 61.0533C29.4004 60.4264 27.2849 57.617 28.0638 54.3432C28.8426 51.0694 31.9967 49.5136 34.6315 50.1405C37.2663 50.7673 39.3818 53.5767 38.6029 56.8505C37.8241 60.1244 34.67 61.6801 32.0352 61.0533ZM34.2138 122.107C31.052 121.354 29.5933 118.125 30.2423 115.396C30.8914 112.668 33.6483 110.442 36.81 111.194C39.9718 111.946 41.4306 115.176 40.7815 117.904C40.1324 120.632 37.3755 122.859 34.2138 122.107ZM83.9278 30.1596C84.5769 27.4314 87.3338 25.2047 90.4955 25.9569C93.6573 26.7091 95.1161 29.9387 94.467 32.6669C93.818 35.3952 91.0611 37.6219 87.8993 36.8697C84.7376 36.1175 83.2788 32.8878 83.9278 30.1596ZM73.62 96.8901C66.2426 95.135 61.874 87.7539 63.6913 80.115C65.5087 72.476 72.7332 67.853 80.1106 69.6081C87.488 71.3633 91.8567 78.7443 90.0393 86.3833C88.2219 94.0223 80.9975 98.6453 73.62 96.8901ZM100.045 126.238C102.68 126.865 104.666 130.22 104.017 132.948C103.368 135.676 100.084 137.777 97.4489 137.151C94.8141 136.524 92.8283 133.169 93.4774 130.441C94.1265 127.712 97.4103 125.611 100.045 126.238ZM126.888 83.6194C124.253 82.9925 122.138 80.1831 122.916 76.9093C123.695 73.6354 126.849 72.0797 129.484 72.7066C132.119 73.3334 134.234 76.1428 133.456 79.4166C132.677 82.6905 129.523 84.2462 126.888 83.6194Z" fill="#FF7A00"/>
<path d="M78.6948 109.999L73.5386 173.843L53.7573 174.874V111.312L78.6948 109.999ZM145.726 108.78L142.351 172.343L117.789 174.593L104.664 140.562L102.601 175.249H81.5073L83.1948 108.78L106.632 107.655L122.851 141.405L123.601 109.53L145.726 108.78ZM199.21 109.905L198.742 129.78L184.773 130.343L183.085 173.843L163.304 174.874L161.523 131.374L147.554 132.124L148.117 109.999L199.21 109.905ZM246.273 108.405C246.085 111.343 245.914 114.249 245.757 117.124C245.601 119.999 245.398 122.905 245.148 125.843L225.273 126.874L224.804 132.78H238.773L237.742 147.312L223.679 147.78L223.21 154.624H234.835H243.085C242.898 158.062 242.695 161.483 242.476 164.89C242.289 168.265 242.117 171.655 241.96 175.062L201.554 175.999L203.054 108.405H246.273ZM302.851 130.812C302.851 133.249 302.632 135.468 302.195 137.468C301.789 139.437 301.132 141.249 300.226 142.905C299.32 144.562 298.148 146.093 296.71 147.499C295.273 148.905 293.539 150.249 291.507 151.53L302.664 171.405L281.57 175.53L274.351 155.562L268.539 155.749L267.695 175.249H247.539C247.695 168.124 247.835 161.03 247.96 153.968C248.117 146.905 248.289 139.812 248.476 132.687C248.539 129.093 248.601 125.53 248.664 121.999C248.726 118.468 248.851 114.905 249.039 111.312C251.226 110.499 253.382 109.827 255.507 109.296C257.632 108.765 259.757 108.358 261.882 108.077C264.039 107.765 266.21 107.562 268.398 107.468C270.617 107.343 272.882 107.28 275.195 107.28C278.757 107.28 282.195 107.78 285.507 108.78C288.851 109.749 291.804 111.218 294.367 113.187C296.929 115.155 298.976 117.608 300.507 120.546C302.07 123.483 302.851 126.905 302.851 130.812ZM281.851 132.312C281.851 130.999 281.664 129.796 281.289 128.702C280.945 127.608 280.414 126.671 279.695 125.89C279.007 125.077 278.132 124.452 277.07 124.015C276.039 123.546 274.82 123.312 273.414 123.312C272.789 123.312 272.179 123.358 271.585 123.452C270.992 123.515 270.414 123.624 269.851 123.78L269.101 141.218H270.226C271.57 141.218 272.929 141.046 274.304 140.702C275.71 140.358 276.96 139.827 278.054 139.108C279.179 138.39 280.085 137.468 280.773 136.343C281.492 135.218 281.851 133.874 281.851 132.312ZM369.882 108.78L366.507 172.343L341.945 174.593L328.82 140.562L326.757 175.249H305.664L307.351 108.78L330.789 107.655L347.007 141.405L347.757 109.53L369.882 108.78Z" fill="#FF7A00"/>
</svg>
