<svg width="100" height="100" viewBox="0 0 100 100" fill="none" xmlns="http://www.w3.org/2000/svg">
<path d="M0 31.5773V52.6341H5V84.2061H0V99.9947H80L95 100L100 99.9947V84.2061H95V52.6341H100V31.5773L50 0L0 31.5773ZM20 84.2061V52.6341H30V84.2061H20ZM45 84.2061V52.6341H55V84.2061H45ZM80 84.2061H70V52.6341H80V84.2061ZM60 31.5773C59.9997 32.9599 59.7406 34.3289 59.2376 35.6061C58.7347 36.8834 57.9976 38.0438 57.0686 39.0212C56.1395 39.9986 55.0367 40.7739 53.823 41.3026C52.6093 41.8314 51.3085 42.1034 49.995 42.1031C48.6815 42.1027 47.3808 41.83 46.1674 41.3006C44.954 40.7712 43.8515 39.9954 42.9229 39.0175C41.9943 38.0396 41.2578 36.8788 40.7554 35.6013C40.2531 34.3238 39.9947 32.9546 39.995 31.572C39.9957 28.7797 41.0501 26.1021 42.9264 24.1281C44.8027 22.1541 47.3472 21.0456 50 21.0463C52.6528 21.047 55.1967 22.1569 57.0721 24.1318C58.9475 26.1068 60.0007 28.785 60 31.5773Z" fill="white"/>
</svg>
