<svg width="651" height="650" viewBox="0 0 651 650" fill="none" xmlns="http://www.w3.org/2000/svg">
<path d="M274.553 3.42844C274.553 4.10652 274.361 4.76937 274.001 5.33317C273.641 5.89698 273.129 6.33641 272.531 6.5959C271.932 6.85539 271.273 6.92328 270.638 6.791C270.002 6.65871 269.418 6.33218 268.96 5.85271C268.502 5.37323 268.19 4.76234 268.063 4.09729C267.937 3.43224 268.002 2.7429 268.25 2.11643C268.498 1.48997 268.918 0.954519 269.456 0.577798C269.995 0.201076 270.629 1.84757e-06 271.277 1.84757e-06C272.146 1.84757e-06 272.979 0.361212 273.594 1.00417C274.208 1.64712 274.553 2.51916 274.553 3.42844ZM299.127 1.84757e-06C298.479 1.84757e-06 297.846 0.201076 297.307 0.577798C296.768 0.954519 296.348 1.48997 296.1 2.11643C295.852 2.7429 295.787 3.43224 295.914 4.09729C296.04 4.76234 296.352 5.37323 296.81 5.85271C297.268 6.33218 297.852 6.65871 298.488 6.791C299.123 6.92328 299.782 6.85539 300.381 6.5959C300.98 6.33641 301.491 5.89698 301.851 5.33317C302.211 4.76937 302.404 4.10652 302.404 3.42844C302.404 2.51916 302.058 1.64712 301.444 1.00417C300.829 0.361212 299.996 1.84757e-06 299.127 1.84757e-06ZM326.977 6.85687C327.625 6.85687 328.259 6.6558 328.798 6.27908C329.337 5.90236 329.757 5.36691 330.005 4.74044C330.253 4.11398 330.317 3.42463 330.191 2.75958C330.065 2.09453 329.752 1.48364 329.294 1.00417C328.836 0.524693 328.252 0.198165 327.617 0.065878C326.981 -0.066409 326.322 0.00148548 325.724 0.260976C325.125 0.520466 324.613 0.959898 324.253 1.5237C323.893 2.0875 323.701 2.75036 323.701 3.42844C323.701 4.33771 324.046 5.20975 324.661 5.85271C325.275 6.49566 326.108 6.85687 326.977 6.85687ZM271.277 29.1417C270.629 29.1417 269.995 29.3428 269.456 29.7195C268.918 30.0962 268.498 30.6317 268.25 31.2581C268.002 31.8846 267.937 32.5739 268.063 33.239C268.19 33.904 268.502 34.5149 268.96 34.9944C269.418 35.4739 270.002 35.8004 270.638 35.9327C271.273 36.065 271.932 35.9971 272.531 35.7376C273.129 35.4781 273.641 35.0387 274.001 34.4749C274.361 33.9111 274.553 33.2482 274.553 32.5701C274.553 31.6609 274.208 30.7888 273.594 30.1459C272.979 29.5029 272.146 29.1417 271.277 29.1417ZM299.127 29.1417C298.479 29.1417 297.846 29.3428 297.307 29.7195C296.768 30.0962 296.348 30.6317 296.1 31.2581C295.852 31.8846 295.787 32.5739 295.914 33.239C296.04 33.904 296.352 34.5149 296.81 34.9944C297.268 35.4739 297.852 35.8004 298.488 35.9327C299.123 36.065 299.782 35.9971 300.381 35.7376C300.98 35.4781 301.491 35.0387 301.851 34.4749C302.211 33.9111 302.404 33.2482 302.404 32.5701C302.404 31.6609 302.058 30.7888 301.444 30.1459C300.829 29.5029 299.996 29.1417 299.127 29.1417ZM326.977 29.1417C326.329 29.1417 325.696 29.3428 325.157 29.7195C324.618 30.0962 324.198 30.6317 323.95 31.2581C323.702 31.8846 323.637 32.5739 323.764 33.239C323.89 33.904 324.202 34.5149 324.661 34.9944C325.119 35.4739 325.703 35.8004 326.338 35.9327C326.974 36.065 327.633 35.9971 328.231 35.7376C328.83 35.4781 329.342 35.0387 329.702 34.4749C330.062 33.9111 330.254 33.2482 330.254 32.5701C330.254 31.6609 329.909 30.7888 329.294 30.1459C328.68 29.5029 327.846 29.1417 326.977 29.1417ZM271.277 58.2834C270.629 58.2834 269.995 58.4845 269.456 58.8612C268.918 59.2379 268.498 59.7734 268.25 60.3998C268.002 61.0263 267.937 61.7156 268.063 62.3807C268.19 63.0457 268.502 63.6566 268.96 64.1361C269.418 64.6156 270.002 64.9421 270.638 65.0744C271.273 65.2067 271.932 65.1388 272.531 64.8793C273.129 64.6198 273.641 64.1804 274.001 63.6166C274.361 63.0528 274.553 62.3899 274.553 61.7118C274.553 60.8026 274.208 59.9305 273.594 59.2876C272.979 58.6446 272.146 58.2834 271.277 58.2834ZM299.127 58.2834C298.479 58.2834 297.846 58.4845 297.307 58.8612C296.768 59.2379 296.348 59.7734 296.1 60.3998C295.852 61.0263 295.787 61.7156 295.914 62.3807C296.04 63.0457 296.352 63.6566 296.81 64.1361C297.268 64.6156 297.852 64.9421 298.488 65.0744C299.123 65.2067 299.782 65.1388 300.381 64.8793C300.98 64.6198 301.491 64.1804 301.851 63.6166C302.211 63.0528 302.404 62.3899 302.404 61.7118C302.404 60.8026 302.058 59.9305 301.444 59.2876C300.829 58.6446 299.996 58.2834 299.127 58.2834ZM326.977 58.2834C326.329 58.2834 325.696 58.4845 325.157 58.8612C324.618 59.2379 324.198 59.7734 323.95 60.3998C323.702 61.0263 323.637 61.7156 323.764 62.3807C323.89 63.0457 324.202 63.6566 324.661 64.1361C325.119 64.6156 325.703 64.9421 326.338 65.0744C326.974 65.2067 327.633 65.1388 328.231 64.8793C328.83 64.6198 329.342 64.1804 329.702 63.6166C330.062 63.0528 330.254 62.3899 330.254 61.7118C330.254 60.8026 329.909 59.9305 329.294 59.2876C328.68 58.6446 327.846 58.2834 326.977 58.2834Z" fill="#FF7A00"/>
<path d="M274.553 86.4823C274.553 87.1604 274.361 87.8232 274.001 88.387C273.641 88.9508 273.129 89.3902 272.531 89.6497C271.932 89.9092 271.273 89.9771 270.638 89.8448C270.002 89.7125 269.418 89.386 268.96 88.9065C268.502 88.4271 268.19 87.8162 268.063 87.1511C267.937 86.4861 268.002 85.7967 268.25 85.1703C268.498 84.5438 268.918 84.0084 269.456 83.6316C269.995 83.2549 270.629 83.0538 271.277 83.0538C272.146 83.0538 272.979 83.415 273.594 84.058C274.208 84.701 274.553 85.573 274.553 86.4823ZM299.127 83.0538C298.479 83.0538 297.846 83.2549 297.307 83.6316C296.768 84.0084 296.348 84.5438 296.1 85.1703C295.852 85.7967 295.787 86.4861 295.914 87.1511C296.04 87.8162 296.352 88.4271 296.81 88.9065C297.268 89.386 297.852 89.7125 298.488 89.8448C299.123 89.9771 299.782 89.9092 300.381 89.6497C300.98 89.3902 301.491 88.9508 301.851 88.387C302.211 87.8232 302.404 87.1604 302.404 86.4823C302.404 85.573 302.058 84.701 301.444 84.058C300.829 83.415 299.996 83.0538 299.127 83.0538ZM326.977 89.9107C327.625 89.9107 328.259 89.7096 328.798 89.3329C329.337 88.9562 329.757 88.4207 330.005 87.7943C330.253 87.1678 330.317 86.4785 330.191 85.8134C330.065 85.1484 329.752 84.5375 329.294 84.058C328.836 83.5785 328.252 83.252 327.617 83.1197C326.981 82.9874 326.322 83.0553 325.724 83.3148C325.125 83.5743 324.613 84.0137 324.253 84.5775C323.893 85.1413 323.701 85.8042 323.701 86.4823C323.701 87.3915 324.046 88.2636 324.661 88.9065C325.275 89.5495 326.108 89.9107 326.977 89.9107ZM271.277 112.196C270.629 112.196 269.995 112.397 269.456 112.773C268.918 113.15 268.498 113.685 268.25 114.312C268.002 114.938 267.937 115.628 268.063 116.293C268.19 116.958 268.502 117.569 268.96 118.048C269.418 118.528 270.002 118.854 270.638 118.987C271.273 119.119 271.932 119.051 272.531 118.791C273.129 118.532 273.641 118.093 274.001 117.529C274.361 116.965 274.553 116.302 274.553 115.624C274.553 114.715 274.208 113.843 273.594 113.2C272.979 112.557 272.146 112.196 271.277 112.196ZM299.127 112.196C298.479 112.196 297.846 112.397 297.307 112.773C296.768 113.15 296.348 113.685 296.1 114.312C295.852 114.938 295.787 115.628 295.914 116.293C296.04 116.958 296.352 117.569 296.81 118.048C297.268 118.528 297.852 118.854 298.488 118.987C299.123 119.119 299.782 119.051 300.381 118.791C300.98 118.532 301.491 118.093 301.851 117.529C302.211 116.965 302.404 116.302 302.404 115.624C302.404 114.715 302.058 113.843 301.444 113.2C300.829 112.557 299.996 112.196 299.127 112.196ZM326.977 112.196C326.329 112.196 325.696 112.397 325.157 112.773C324.618 113.15 324.198 113.685 323.95 114.312C323.702 114.938 323.637 115.628 323.764 116.293C323.89 116.958 324.202 117.569 324.661 118.048C325.119 118.528 325.703 118.854 326.338 118.987C326.974 119.119 327.633 119.051 328.231 118.791C328.83 118.532 329.342 118.093 329.702 117.529C330.062 116.965 330.254 116.302 330.254 115.624C330.254 114.715 329.909 113.843 329.294 113.2C328.68 112.557 327.846 112.196 326.977 112.196ZM271.277 141.337C270.629 141.337 269.995 141.538 269.456 141.915C268.918 142.292 268.498 142.827 268.25 143.454C268.002 144.08 267.937 144.769 268.063 145.435C268.19 146.1 268.502 146.71 268.96 147.19C269.418 147.669 270.002 147.996 270.638 148.128C271.273 148.261 271.932 148.193 272.531 147.933C273.129 147.674 273.641 147.234 274.001 146.67C274.361 146.107 274.553 145.444 274.553 144.766C274.553 143.856 274.208 142.984 273.594 142.341C272.979 141.698 272.146 141.337 271.277 141.337ZM299.127 141.337C298.479 141.337 297.846 141.538 297.307 141.915C296.768 142.292 296.348 142.827 296.1 143.454C295.852 144.08 295.787 144.769 295.914 145.435C296.04 146.1 296.352 146.71 296.81 147.19C297.268 147.669 297.852 147.996 298.488 148.128C299.123 148.261 299.782 148.193 300.381 147.933C300.98 147.674 301.491 147.234 301.851 146.67C302.211 146.107 302.404 145.444 302.404 144.766C302.404 143.856 302.058 142.984 301.444 142.341C300.829 141.698 299.996 141.337 299.127 141.337ZM326.977 141.337C326.329 141.337 325.696 141.538 325.157 141.915C324.618 142.292 324.198 142.827 323.95 143.454C323.702 144.08 323.637 144.769 323.764 145.435C323.89 146.1 324.202 146.71 324.661 147.19C325.119 147.669 325.703 147.996 326.338 148.128C326.974 148.261 327.633 148.193 328.231 147.933C328.83 147.674 329.342 147.234 329.702 146.67C330.062 146.107 330.254 145.444 330.254 144.766C330.254 143.856 329.909 142.984 329.294 142.341C328.68 141.698 327.846 141.337 326.977 141.337Z" fill="#FF7A00"/>
<path d="M357.039 5.05686C357.039 5.73494 356.847 6.39779 356.487 6.96159C356.127 7.5254 355.615 7.96483 355.017 8.22432C354.418 8.48381 353.759 8.5517 353.124 8.41941C352.488 8.28713 351.904 7.9606 351.446 7.48112C350.988 7.00165 350.676 6.39076 350.549 5.72571C350.423 5.06066 350.488 4.37131 350.736 3.74485C350.984 3.11839 351.404 2.58294 351.943 2.20622C352.481 1.82949 353.115 1.62842 353.763 1.62842C354.632 1.62842 355.465 1.98963 356.08 2.63259C356.694 3.27554 357.039 4.14758 357.039 5.05686ZM381.613 1.62842C380.965 1.62842 380.332 1.82949 379.793 2.20622C379.254 2.58294 378.834 3.11839 378.586 3.74485C378.338 4.37131 378.273 5.06066 378.4 5.72571C378.526 6.39076 378.838 7.00165 379.296 7.48112C379.755 7.9606 380.338 8.28713 380.974 8.41941C381.61 8.5517 382.268 8.48381 382.867 8.22432C383.466 7.96483 383.978 7.5254 384.338 6.96159C384.698 6.39779 384.89 5.73494 384.89 5.05686C384.89 4.14758 384.545 3.27554 383.93 2.63259C383.316 1.98963 382.482 1.62842 381.613 1.62842ZM409.464 8.48529C410.112 8.48529 410.745 8.28422 411.284 7.90749C411.823 7.53077 412.243 6.99532 412.491 6.36886C412.739 5.7424 412.804 5.05305 412.677 4.388C412.551 3.72295 412.239 3.11206 411.78 2.63259C411.322 2.15311 410.738 1.82658 410.103 1.6943C409.467 1.56201 408.808 1.6299 408.21 1.88939C407.611 2.14888 407.099 2.58832 406.739 3.15212C406.379 3.71592 406.187 4.37877 406.187 5.05686C406.187 5.96613 406.532 6.83817 407.147 7.48112C407.761 8.12408 408.595 8.48529 409.464 8.48529ZM353.763 30.7701C353.115 30.7701 352.481 30.9712 351.943 31.3479C351.404 31.7246 350.984 32.2601 350.736 32.8865C350.488 33.513 350.423 34.2024 350.549 34.8674C350.676 35.5325 350.988 36.1434 351.446 36.6228C351.904 37.1023 352.488 37.4288 353.124 37.5611C353.759 37.6934 354.418 37.6255 355.017 37.366C355.615 37.1065 356.127 36.6671 356.487 36.1033C356.847 35.5395 357.039 34.8766 357.039 34.1986C357.039 33.2893 356.694 32.4172 356.08 31.7743C355.465 31.1313 354.632 30.7701 353.763 30.7701ZM381.613 30.7701C380.965 30.7701 380.332 30.9712 379.793 31.3479C379.254 31.7246 378.834 32.2601 378.586 32.8865C378.338 33.513 378.273 34.2024 378.4 34.8674C378.526 35.5325 378.838 36.1434 379.296 36.6228C379.755 37.1023 380.338 37.4288 380.974 37.5611C381.61 37.6934 382.268 37.6255 382.867 37.366C383.466 37.1065 383.978 36.6671 384.338 36.1033C384.698 35.5395 384.89 34.8766 384.89 34.1986C384.89 33.2893 384.545 32.4172 383.93 31.7743C383.316 31.1313 382.482 30.7701 381.613 30.7701ZM409.464 30.7701C408.816 30.7701 408.182 30.9712 407.643 31.3479C407.104 31.7246 406.684 32.2601 406.436 32.8865C406.188 33.513 406.124 34.2024 406.25 34.8674C406.376 35.5325 406.688 36.1434 407.147 36.6228C407.605 37.1023 408.189 37.4288 408.824 37.5611C409.46 37.6934 410.119 37.6255 410.717 37.366C411.316 37.1065 411.828 36.6671 412.188 36.1033C412.548 35.5395 412.74 34.8766 412.74 34.1986C412.74 33.2893 412.395 32.4172 411.78 31.7743C411.166 31.1313 410.333 30.7701 409.464 30.7701ZM353.763 59.9118C353.115 59.9118 352.481 60.1129 351.943 60.4896C351.404 60.8663 350.984 61.4018 350.736 62.0282C350.488 62.6547 350.423 63.3441 350.549 64.0091C350.676 64.6742 350.988 65.285 351.446 65.7645C351.904 66.244 352.488 66.5705 353.124 66.7028C353.759 66.8351 354.418 66.7672 355.017 66.5077C355.615 66.2482 356.127 65.8088 356.487 65.245C356.847 64.6812 357.039 64.0183 357.039 63.3402C357.039 62.431 356.694 61.5589 356.08 60.916C355.465 60.273 354.632 59.9118 353.763 59.9118ZM381.613 59.9118C380.965 59.9118 380.332 60.1129 379.793 60.4896C379.254 60.8663 378.834 61.4018 378.586 62.0282C378.338 62.6547 378.273 63.3441 378.4 64.0091C378.526 64.6742 378.838 65.285 379.296 65.7645C379.755 66.244 380.338 66.5705 380.974 66.7028C381.61 66.8351 382.268 66.7672 382.867 66.5077C383.466 66.2482 383.978 65.8088 384.338 65.245C384.698 64.6812 384.89 64.0183 384.89 63.3402C384.89 62.431 384.545 61.5589 383.93 60.916C383.316 60.273 382.482 59.9118 381.613 59.9118ZM409.464 59.9118C408.816 59.9118 408.182 60.1129 407.643 60.4896C407.104 60.8663 406.684 61.4018 406.436 62.0282C406.188 62.6547 406.124 63.3441 406.25 64.0091C406.376 64.6742 406.688 65.285 407.147 65.7645C407.605 66.244 408.189 66.5705 408.824 66.7028C409.46 66.8351 410.119 66.7672 410.717 66.5077C411.316 66.2482 411.828 65.8088 412.188 65.245C412.548 64.6812 412.74 64.0183 412.74 63.3402C412.74 62.431 412.395 61.5589 411.78 60.916C411.166 60.273 410.333 59.9118 409.464 59.9118Z" fill="#FF7A00"/>
<path d="M357.039 86.4823C357.039 87.1604 356.847 87.8232 356.487 88.387C356.127 88.9508 355.615 89.3902 355.017 89.6497C354.418 89.9092 353.759 89.9771 353.124 89.8448C352.488 89.7125 351.904 89.386 351.446 88.9065C350.988 88.4271 350.676 87.8162 350.549 87.1511C350.423 86.4861 350.488 85.7967 350.736 85.1703C350.984 84.5438 351.404 84.0084 351.943 83.6316C352.481 83.2549 353.115 83.0538 353.763 83.0538C354.632 83.0538 355.465 83.415 356.08 84.058C356.694 84.701 357.039 85.573 357.039 86.4823ZM381.613 83.0538C380.965 83.0538 380.332 83.2549 379.793 83.6316C379.254 84.0084 378.834 84.5438 378.586 85.1703C378.338 85.7967 378.273 86.4861 378.4 87.1511C378.526 87.8162 378.838 88.4271 379.296 88.9065C379.755 89.386 380.338 89.7125 380.974 89.8448C381.61 89.9771 382.268 89.9092 382.867 89.6497C383.466 89.3902 383.978 88.9508 384.338 88.387C384.698 87.8232 384.89 87.1604 384.89 86.4823C384.89 85.573 384.545 84.701 383.93 84.058C383.316 83.415 382.482 83.0538 381.613 83.0538ZM409.464 89.9107C410.112 89.9107 410.745 89.7096 411.284 89.3329C411.823 88.9562 412.243 88.4207 412.491 87.7943C412.739 87.1678 412.804 86.4785 412.677 85.8134C412.551 85.1484 412.239 84.5375 411.78 84.058C411.322 83.5785 410.738 83.252 410.103 83.1197C409.467 82.9874 408.808 83.0553 408.21 83.3148C407.611 83.5743 407.099 84.0137 406.739 84.5775C406.379 85.1413 406.187 85.8042 406.187 86.4823C406.187 87.3915 406.532 88.2636 407.147 88.9065C407.761 89.5495 408.595 89.9107 409.464 89.9107ZM353.763 112.196C353.115 112.196 352.481 112.397 351.943 112.773C351.404 113.15 350.984 113.685 350.736 114.312C350.488 114.938 350.423 115.628 350.549 116.293C350.676 116.958 350.988 117.569 351.446 118.048C351.904 118.528 352.488 118.854 353.124 118.987C353.759 119.119 354.418 119.051 355.017 118.791C355.615 118.532 356.127 118.093 356.487 117.529C356.847 116.965 357.039 116.302 357.039 115.624C357.039 114.715 356.694 113.843 356.08 113.2C355.465 112.557 354.632 112.196 353.763 112.196ZM381.613 112.196C380.965 112.196 380.332 112.397 379.793 112.773C379.254 113.15 378.834 113.685 378.586 114.312C378.338 114.938 378.273 115.628 378.4 116.293C378.526 116.958 378.838 117.569 379.296 118.048C379.755 118.528 380.338 118.854 380.974 118.987C381.61 119.119 382.268 119.051 382.867 118.791C383.466 118.532 383.978 118.093 384.338 117.529C384.698 116.965 384.89 116.302 384.89 115.624C384.89 114.715 384.545 113.843 383.93 113.2C383.316 112.557 382.482 112.196 381.613 112.196ZM409.464 112.196C408.816 112.196 408.182 112.397 407.643 112.773C407.104 113.15 406.684 113.685 406.436 114.312C406.188 114.938 406.124 115.628 406.25 116.293C406.376 116.958 406.688 117.569 407.147 118.048C407.605 118.528 408.189 118.854 408.824 118.987C409.46 119.119 410.119 119.051 410.717 118.791C411.316 118.532 411.828 118.093 412.188 117.529C412.548 116.965 412.74 116.302 412.74 115.624C412.74 114.715 412.395 113.843 411.78 113.2C411.166 112.557 410.333 112.196 409.464 112.196ZM353.763 141.337C353.115 141.337 352.481 141.538 351.943 141.915C351.404 142.292 350.984 142.827 350.736 143.454C350.488 144.08 350.423 144.769 350.549 145.435C350.676 146.1 350.988 146.71 351.446 147.19C351.904 147.669 352.488 147.996 353.124 148.128C353.759 148.261 354.418 148.193 355.017 147.933C355.615 147.674 356.127 147.234 356.487 146.67C356.847 146.107 357.039 145.444 357.039 144.766C357.039 143.856 356.694 142.984 356.08 142.341C355.465 141.698 354.632 141.337 353.763 141.337ZM381.613 141.337C380.965 141.337 380.332 141.538 379.793 141.915C379.254 142.292 378.834 142.827 378.586 143.454C378.338 144.08 378.273 144.769 378.4 145.435C378.526 146.1 378.838 146.71 379.296 147.19C379.755 147.669 380.338 147.996 380.974 148.128C381.61 148.261 382.268 148.193 382.867 147.933C383.466 147.674 383.978 147.234 384.338 146.67C384.698 146.107 384.89 145.444 384.89 144.766C384.89 143.856 384.545 142.984 383.93 142.341C383.316 141.698 382.482 141.337 381.613 141.337ZM409.464 141.337C408.816 141.337 408.182 141.538 407.643 141.915C407.104 142.292 406.684 142.827 406.436 143.454C406.188 144.08 406.124 144.769 406.25 145.435C406.376 146.1 406.688 146.71 407.147 147.19C407.605 147.669 408.189 147.996 408.824 148.128C409.46 148.261 410.119 148.193 410.717 147.933C411.316 147.674 411.828 147.234 412.188 146.67C412.548 146.107 412.74 145.444 412.74 144.766C412.74 143.856 412.395 142.984 411.78 142.341C411.166 141.698 410.333 141.337 409.464 141.337Z" fill="#FF7A00"/>
<path d="M208.535 215.96C208.535 215.96 168.373 178.936 165.812 127.554C163.252 76.171 218.158 40.9528 218.158 40.9528" stroke="#FF7A00" stroke-width="2"/>
<path d="M217.811 195.618C217.811 195.618 186.303 166.512 184.022 126.971C181.741 87.4303 223.71 60.6893 223.71 60.6893" stroke="#FF7A00" stroke-width="2"/>
<path d="M236.628 183.347C236.628 183.347 209.059 161.113 206.334 128.875C203.608 96.6365 237.036 75.8396 237.036 75.8396" stroke="#FF7A00" stroke-width="2"/>
<path d="M208.535 215.96C208.535 215.96 168.373 178.936 165.812 127.554C163.252 76.171 218.158 40.9528 218.158 40.9528" stroke="#FF7A00" stroke-width="2"/>
<path d="M217.811 195.618C217.811 195.618 186.303 166.512 184.022 126.971C181.741 87.4303 223.71 60.6893 223.71 60.6893" stroke="#FF7A00" stroke-width="2"/>
<path d="M236.628 183.347C236.628 183.347 209.059 161.113 206.334 128.875C203.608 96.6365 237.036 75.8396 237.036 75.8396" stroke="#FF7A00" stroke-width="2"/>
<path d="M629.534 461.351C629.534 461.351 578.838 479.443 534.819 456.317C490.801 433.191 488.693 365.943 488.693 365.943" stroke="#FF7A00" stroke-width="2"/>
<path d="M617.203 442.861C617.203 442.861 577.382 457.026 543.354 439.511C509.326 421.996 507.864 370.683 507.864 370.683" stroke="#FF7A00" stroke-width="2"/>
<path d="M616.314 419.716C616.314 419.716 584.161 433.71 555.989 420.215C527.817 406.721 527.07 366.099 527.07 366.099" stroke="#FF7A00" stroke-width="2"/>
<path d="M478.944 133.604C478.944 133.604 517.253 94.5859 567.644 94.656C618.036 94.7261 649.618 152.546 649.618 152.546" stroke="#FF7A00" stroke-width="2"/>
<path d="M498.358 144.123C498.358 144.123 528.47 113.516 567.264 113.253C606.058 112.991 630.024 157.177 630.024 157.177" stroke="#FF7A00" stroke-width="2"/>
<path d="M509.378 163.949C509.378 163.949 532.563 137 564.238 135.903C595.913 134.806 614.51 169.974 614.51 169.974" stroke="#FF7A00" stroke-width="2"/>
<path d="M83.3977 630.037C83.3977 630.037 43.2358 593.014 40.6753 541.631C38.1148 490.248 93.0214 455.03 93.0214 455.03" stroke="#FF7A00" stroke-width="2"/>
<path d="M92.674 609.695C92.674 609.695 61.166 580.589 58.8852 541.049C56.6043 501.508 98.5732 474.767 98.5732 474.767" stroke="#FF7A00" stroke-width="2"/>
<path d="M111.491 597.425C111.491 597.425 83.9226 575.191 81.197 542.953C78.4714 510.714 111.899 489.918 111.899 489.918" stroke="#FF7A00" stroke-width="2"/>
<path d="M92.9566 199.706C92.2933 199.706 91.7053 199.259 91.5093 198.613L88.6296 188.746L80.3374 185.375C79.7645 185.144 79.3876 184.574 79.3876 183.928C79.3876 183.281 79.7947 182.727 80.3827 182.496L88.7201 179.387L91.5093 170.012C91.7053 169.366 92.2933 168.919 92.9566 168.919C93.62 168.919 94.208 169.366 94.404 170.012L97.2083 179.387L105.546 182.496C106.134 182.712 106.526 183.281 106.541 183.928C106.556 184.574 106.164 185.144 105.591 185.375L97.2987 188.73L94.4191 198.597C94.2231 199.244 93.6351 199.69 92.9717 199.69L92.9566 199.706ZM85.1318 184.005L90.4238 186.16C90.8459 186.329 91.1776 186.698 91.3133 187.145L92.9566 192.779L94.6 187.145C94.7357 186.698 95.0523 186.329 95.4895 186.16L100.781 184.005L95.4443 182.019C95.0071 181.849 94.6603 181.48 94.5246 181.018L92.9566 175.738L91.3887 181.018C91.253 181.48 90.9062 181.849 90.469 182.019L85.1318 184.005ZM105.018 199.706C104.566 199.706 104.189 199.352 104.144 198.89C103.842 195.888 103.721 195.319 101.294 195.088C101.076 195.067 100.874 194.964 100.726 194.799C100.578 194.634 100.496 194.418 100.495 194.195C100.495 193.733 100.842 193.348 101.294 193.302C103.721 193.071 103.857 192.686 104.144 189.731C104.171 189.514 104.276 189.315 104.436 189.171C104.597 189.027 104.804 188.948 105.018 188.948C105.232 188.948 105.439 189.027 105.6 189.171C105.76 189.315 105.865 189.514 105.892 189.731C106.179 192.686 106.315 193.071 108.742 193.302C109.194 193.348 109.541 193.733 109.541 194.195C109.541 194.657 109.209 195.041 108.757 195.088C106.33 195.319 106.194 195.888 105.892 198.89C105.847 199.352 105.47 199.69 105.018 199.69V199.706Z" fill="#FF7A00"/>
<path d="M37.1728 442.918C36.5094 442.918 35.9214 442.472 35.7254 441.825L32.8457 431.958L24.5535 428.587C23.9806 428.356 23.6037 427.787 23.6037 427.14C23.6037 426.494 24.0108 425.94 24.5988 425.709L32.9362 422.599L35.7254 413.225C35.9214 412.578 36.5094 412.132 37.1728 412.132C37.8361 412.132 38.4241 412.578 38.6201 413.225L41.4244 422.599L49.7618 425.709C50.3498 425.924 50.7418 426.494 50.7569 427.14C50.772 427.787 50.38 428.356 49.8071 428.587L41.5149 431.943L38.6352 441.81C38.4392 442.456 37.8512 442.903 37.1878 442.903L37.1728 442.918ZM29.3479 427.217L34.6399 429.372C35.062 429.542 35.3937 429.911 35.5294 430.357L37.1728 435.991L38.8161 430.357C38.9518 429.911 39.2684 429.542 39.7057 429.372L44.9976 427.217L39.6604 425.231C39.2232 425.062 38.8764 424.693 38.7407 424.231L37.1728 418.951L35.6048 424.231C35.4691 424.693 35.1223 425.062 34.6851 425.231L29.3479 427.217ZM49.2341 442.918C48.7818 442.918 48.4049 442.564 48.3597 442.102C48.0582 439.101 47.9375 438.531 45.5102 438.3C45.2922 438.279 45.0897 438.176 44.942 438.011C44.7943 437.846 44.712 437.631 44.7111 437.408C44.7111 436.946 45.0579 436.561 45.5102 436.515C47.9375 436.284 48.0732 435.899 48.3597 432.943C48.3876 432.727 48.4917 432.528 48.6526 432.384C48.8135 432.24 49.0202 432.16 49.2341 432.16C49.4481 432.16 49.6548 432.24 49.8157 432.384C49.9766 432.528 50.0807 432.727 50.1086 432.943C50.3951 435.899 50.5307 436.284 52.9581 436.515C53.4104 436.561 53.7572 436.946 53.7572 437.408C53.7572 437.869 53.4255 438.254 52.9732 438.3C50.5458 438.531 50.4101 439.101 50.1086 442.102C50.0634 442.564 49.6864 442.903 49.2341 442.903V442.918Z" fill="#FF7A00"/>
<path d="M203.569 632.786C202.906 632.786 202.318 632.34 202.122 631.694L199.242 621.826L190.95 618.455C190.377 618.224 190 617.655 190 617.008C190 616.362 190.407 615.808 190.995 615.577L199.332 612.467L202.122 603.093C202.318 602.446 202.906 602 203.569 602C204.232 602 204.82 602.446 205.016 603.093L207.821 612.467L216.158 615.577C216.746 615.792 217.138 616.362 217.153 617.008C217.168 617.655 216.776 618.224 216.203 618.455L207.911 621.811L205.031 631.678C204.835 632.325 204.248 632.771 203.584 632.771L203.569 632.786ZM195.744 617.085L201.036 619.24C201.458 619.41 201.79 619.779 201.926 620.226L203.569 625.859L205.212 620.226C205.348 619.779 205.665 619.41 206.102 619.24L211.394 617.085L206.057 615.1C205.619 614.93 205.273 614.561 205.137 614.099L203.569 608.819L202.001 614.099C201.865 614.561 201.519 614.93 201.081 615.1L195.744 617.085ZM215.63 632.786C215.178 632.786 214.801 632.432 214.756 631.971C214.454 628.969 214.334 628.399 211.906 628.168C211.689 628.147 211.486 628.044 211.338 627.879C211.191 627.714 211.108 627.499 211.107 627.276C211.107 626.814 211.454 626.429 211.906 626.383C214.334 626.152 214.47 625.767 214.756 622.812C214.784 622.595 214.888 622.396 215.049 622.252C215.21 622.108 215.416 622.029 215.63 622.029C215.844 622.029 216.051 622.108 216.212 622.252C216.373 622.396 216.477 622.595 216.505 622.812C216.791 625.767 216.927 626.152 219.354 626.383C219.807 626.429 220.153 626.814 220.153 627.276C220.153 627.737 219.822 628.122 219.369 628.168C216.942 628.399 216.806 628.969 216.505 631.971C216.46 632.432 216.083 632.771 215.63 632.771V632.786Z" fill="#FF7A00"/>
<path d="M584.458 307.458C583.794 307.458 583.207 307.012 583.011 306.365L580.131 296.498L571.839 293.127C571.266 292.896 570.889 292.327 570.889 291.68C570.889 291.034 571.296 290.48 571.884 290.249L580.221 287.139L583.011 277.765C583.207 277.118 583.794 276.672 584.458 276.672C585.121 276.672 585.709 277.118 585.905 277.765L588.71 287.139L597.047 290.249C597.635 290.464 598.027 291.034 598.042 291.68C598.057 292.327 597.665 292.896 597.092 293.127L588.8 296.483L585.92 306.35C585.724 306.997 585.136 307.443 584.473 307.443L584.458 307.458ZM576.633 291.757L581.925 293.912C582.347 294.082 582.679 294.451 582.815 294.897L584.458 300.531L586.101 294.897C586.237 294.451 586.554 294.082 586.991 293.912L592.283 291.757L586.946 289.772C586.508 289.602 586.162 289.233 586.026 288.771L584.458 283.491L582.89 288.771C582.754 289.233 582.407 289.602 581.97 289.772L576.633 291.757ZM596.519 307.458C596.067 307.458 595.69 307.104 595.645 306.642C595.343 303.641 595.223 303.071 592.795 302.84C592.577 302.819 592.375 302.716 592.227 302.551C592.079 302.386 591.997 302.171 591.996 301.948C591.996 301.486 592.343 301.101 592.795 301.055C595.223 300.824 595.358 300.439 595.645 297.484C595.673 297.267 595.777 297.068 595.938 296.924C596.099 296.78 596.305 296.7 596.519 296.7C596.733 296.7 596.94 296.78 597.101 296.924C597.262 297.068 597.366 297.267 597.394 297.484C597.68 300.439 597.816 300.824 600.243 301.055C600.696 301.101 601.042 301.486 601.042 301.948C601.042 302.409 600.711 302.794 600.258 302.84C597.831 303.071 597.695 303.641 597.394 306.642C597.348 307.104 596.972 307.443 596.519 307.443V307.458Z" fill="#FF7A00"/>
<path d="M454.798 70.4026C454.135 70.4026 453.547 69.9562 453.351 69.3097L450.471 59.4427L442.179 56.0716C441.606 55.8407 441.229 55.2711 441.229 54.6246C441.229 53.9781 441.636 53.4239 442.224 53.193L450.561 50.0836L453.351 40.7091C453.547 40.0626 454.135 39.6162 454.798 39.6162C455.461 39.6162 456.049 40.0626 456.245 40.7091L459.05 50.0836L467.387 53.193C467.975 53.4085 468.367 53.9781 468.382 54.6246C468.397 55.2711 468.005 55.8407 467.432 56.0716L459.14 59.4273L456.26 69.2943C456.064 69.9409 455.476 70.3873 454.813 70.3873L454.798 70.4026ZM446.973 54.7016L452.265 56.8566C452.687 57.0259 453.019 57.3954 453.155 57.8418L454.798 63.4757L456.441 57.8418C456.577 57.3954 456.894 57.0259 457.331 56.8566L462.623 54.7016L457.286 52.7158C456.848 52.5465 456.502 52.1771 456.366 51.7153L454.798 46.4354L453.23 51.7153C453.094 52.1771 452.748 52.5465 452.31 52.7158L446.973 54.7016ZM466.859 70.4026C466.407 70.4026 466.03 70.0486 465.985 69.5868C465.683 66.5851 465.563 66.0156 463.135 65.7847C462.917 65.7637 462.715 65.6606 462.567 65.4956C462.42 65.3306 462.337 65.1154 462.336 64.8919C462.336 64.4301 462.683 64.0452 463.135 63.9991C465.563 63.7682 465.698 63.3833 465.985 60.4278C466.013 60.2112 466.117 60.0124 466.278 59.8683C466.439 59.7243 466.645 59.6448 466.859 59.6448C467.073 59.6448 467.28 59.7243 467.441 59.8683C467.602 60.0124 467.706 60.2112 467.734 60.4278C468.02 63.3833 468.156 63.7682 470.583 63.9991C471.036 64.0452 471.382 64.4301 471.382 64.8919C471.382 65.3537 471.051 65.7385 470.598 65.7847C468.171 66.0156 468.035 66.5851 467.734 69.5868C467.689 70.0486 467.312 70.3873 466.859 70.3873V70.4026Z" fill="#FF7A00"/>
<path d="M388.378 505.234C388.378 505.912 388.186 506.575 387.826 507.139C387.466 507.703 386.954 508.142 386.355 508.402C385.756 508.661 385.098 508.729 384.462 508.597C383.826 508.465 383.243 508.138 382.784 507.659C382.326 507.179 382.014 506.568 381.888 505.903C381.761 505.238 381.826 504.549 382.074 503.922C382.322 503.296 382.742 502.76 383.281 502.384C383.82 502.007 384.453 501.806 385.101 501.806C385.97 501.806 386.804 502.167 387.418 502.81C388.033 503.453 388.378 504.325 388.378 505.234ZM412.952 501.806C412.304 501.806 411.67 502.007 411.131 502.384C410.592 502.76 410.172 503.296 409.924 503.922C409.676 504.549 409.612 505.238 409.738 505.903C409.864 506.568 410.176 507.179 410.635 507.659C411.093 508.138 411.677 508.465 412.312 508.597C412.948 508.729 413.607 508.661 414.205 508.402C414.804 508.142 415.316 507.703 415.676 507.139C416.036 506.575 416.228 505.912 416.228 505.234C416.228 504.325 415.883 503.453 415.268 502.81C414.654 502.167 413.821 501.806 412.952 501.806ZM440.802 508.663C441.45 508.663 442.083 508.462 442.622 508.085C443.161 507.708 443.581 507.173 443.829 506.546C444.077 505.92 444.142 505.231 444.015 504.565C443.889 503.9 443.577 503.29 443.119 502.81C442.66 502.331 442.077 502.004 441.441 501.872C440.806 501.739 440.147 501.807 439.548 502.067C438.949 502.326 438.438 502.766 438.078 503.33C437.718 503.893 437.525 504.556 437.525 505.234C437.525 506.144 437.871 507.016 438.485 507.659C439.1 508.302 439.933 508.663 440.802 508.663ZM385.101 530.948C384.453 530.948 383.82 531.149 383.281 531.525C382.742 531.902 382.322 532.438 382.074 533.064C381.826 533.691 381.761 534.38 381.888 535.045C382.014 535.71 382.326 536.321 382.784 536.8C383.243 537.28 383.826 537.606 384.462 537.739C385.098 537.871 385.756 537.803 386.355 537.544C386.954 537.284 387.466 536.845 387.826 536.281C388.186 535.717 388.378 535.054 388.378 534.376C388.378 533.467 388.033 532.595 387.418 531.952C386.804 531.309 385.97 530.948 385.101 530.948ZM412.952 530.948C412.304 530.948 411.67 531.149 411.131 531.525C410.592 531.902 410.172 532.438 409.924 533.064C409.676 533.691 409.612 534.38 409.738 535.045C409.864 535.71 410.176 536.321 410.635 536.8C411.093 537.28 411.677 537.606 412.312 537.739C412.948 537.871 413.607 537.803 414.205 537.544C414.804 537.284 415.316 536.845 415.676 536.281C416.036 535.717 416.228 535.054 416.228 534.376C416.228 533.467 415.883 532.595 415.268 531.952C414.654 531.309 413.821 530.948 412.952 530.948ZM440.802 530.948C440.154 530.948 439.52 531.149 438.982 531.525C438.443 531.902 438.023 532.438 437.775 533.064C437.527 533.691 437.462 534.38 437.588 535.045C437.715 535.71 438.027 536.321 438.485 536.8C438.943 537.28 439.527 537.606 440.163 537.739C440.798 537.871 441.457 537.803 442.056 537.544C442.654 537.284 443.166 536.845 443.526 536.281C443.886 535.717 444.078 535.054 444.078 534.376C444.078 533.467 443.733 532.595 443.119 531.952C442.504 531.309 441.671 530.948 440.802 530.948ZM385.101 560.089C384.453 560.089 383.82 560.29 383.281 560.667C382.742 561.044 382.322 561.579 382.074 562.206C381.826 562.832 381.761 563.522 381.888 564.187C382.014 564.852 382.326 565.463 382.784 565.942C383.243 566.421 383.826 566.748 384.462 566.88C385.098 567.013 385.756 566.945 386.355 566.685C386.954 566.426 387.466 565.986 387.826 565.422C388.186 564.859 388.378 564.196 388.378 563.518C388.378 562.608 388.033 561.736 387.418 561.093C386.804 560.451 385.97 560.089 385.101 560.089ZM412.952 560.089C412.304 560.089 411.67 560.29 411.131 560.667C410.592 561.044 410.172 561.579 409.924 562.206C409.676 562.832 409.612 563.522 409.738 564.187C409.864 564.852 410.176 565.463 410.635 565.942C411.093 566.421 411.677 566.748 412.312 566.88C412.948 567.013 413.607 566.945 414.205 566.685C414.804 566.426 415.316 565.986 415.676 565.422C416.036 564.859 416.228 564.196 416.228 563.518C416.228 562.608 415.883 561.736 415.268 561.093C414.654 560.451 413.821 560.089 412.952 560.089ZM440.802 560.089C440.154 560.089 439.52 560.29 438.982 560.667C438.443 561.044 438.023 561.579 437.775 562.206C437.527 562.832 437.462 563.522 437.588 564.187C437.715 564.852 438.027 565.463 438.485 565.942C438.943 566.421 439.527 566.748 440.163 566.88C440.798 567.013 441.457 566.945 442.056 566.685C442.654 566.426 443.166 565.986 443.526 565.422C443.886 564.859 444.078 564.196 444.078 563.518C444.078 562.608 443.733 561.736 443.119 561.093C442.504 560.451 441.671 560.089 440.802 560.089Z" fill="#FF7A00"/>
<path d="M388.378 588.288C388.378 588.966 388.186 589.629 387.826 590.193C387.466 590.757 386.954 591.196 386.355 591.456C385.756 591.715 385.098 591.783 384.462 591.651C383.826 591.519 383.243 591.192 382.784 590.713C382.326 590.233 382.014 589.622 381.888 588.957C381.761 588.292 381.826 587.603 382.074 586.976C382.322 586.35 382.742 585.814 383.281 585.438C383.82 585.061 384.453 584.86 385.101 584.86C385.97 584.86 386.804 585.221 387.418 585.864C388.033 586.507 388.378 587.379 388.378 588.288ZM412.952 584.86C412.304 584.86 411.67 585.061 411.131 585.438C410.592 585.814 410.172 586.35 409.924 586.976C409.676 587.603 409.612 588.292 409.738 588.957C409.864 589.622 410.176 590.233 410.635 590.713C411.093 591.192 411.677 591.519 412.312 591.651C412.948 591.783 413.607 591.715 414.205 591.456C414.804 591.196 415.316 590.757 415.676 590.193C416.036 589.629 416.228 588.966 416.228 588.288C416.228 587.379 415.883 586.507 415.268 585.864C414.654 585.221 413.821 584.86 412.952 584.86ZM440.802 591.717C441.45 591.717 442.083 591.516 442.622 591.139C443.161 590.762 443.581 590.227 443.829 589.6C444.077 588.974 444.142 588.284 444.015 587.619C443.889 586.954 443.577 586.344 443.119 585.864C442.66 585.385 442.077 585.058 441.441 584.926C440.806 584.793 440.147 584.861 439.548 585.121C438.949 585.38 438.438 585.82 438.078 586.384C437.718 586.947 437.525 587.61 437.525 588.288C437.525 589.198 437.871 590.07 438.485 590.713C439.1 591.356 439.933 591.717 440.802 591.717ZM385.101 614.002C384.453 614.002 383.82 614.203 383.281 614.579C382.742 614.956 382.322 615.492 382.074 616.118C381.826 616.744 381.761 617.434 381.888 618.099C382.014 618.764 382.326 619.375 382.784 619.854C383.243 620.334 383.826 620.66 384.462 620.793C385.098 620.925 385.756 620.857 386.355 620.597C386.954 620.338 387.466 619.899 387.826 619.335C388.186 618.771 388.378 618.108 388.378 617.43C388.378 616.521 388.033 615.649 387.418 615.006C386.804 614.363 385.97 614.002 385.101 614.002ZM412.952 614.002C412.304 614.002 411.67 614.203 411.131 614.579C410.592 614.956 410.172 615.492 409.924 616.118C409.676 616.744 409.612 617.434 409.738 618.099C409.864 618.764 410.176 619.375 410.635 619.854C411.093 620.334 411.677 620.66 412.312 620.793C412.948 620.925 413.607 620.857 414.205 620.597C414.804 620.338 415.316 619.899 415.676 619.335C416.036 618.771 416.228 618.108 416.228 617.43C416.228 616.521 415.883 615.649 415.268 615.006C414.654 614.363 413.821 614.002 412.952 614.002ZM440.802 614.002C440.154 614.002 439.52 614.203 438.982 614.579C438.443 614.956 438.023 615.492 437.775 616.118C437.527 616.744 437.462 617.434 437.588 618.099C437.715 618.764 438.027 619.375 438.485 619.854C438.943 620.334 439.527 620.66 440.163 620.793C440.798 620.925 441.457 620.857 442.056 620.597C442.654 620.338 443.166 619.899 443.526 619.335C443.886 618.771 444.078 618.108 444.078 617.43C444.078 616.521 443.733 615.649 443.119 615.006C442.504 614.363 441.671 614.002 440.802 614.002ZM385.101 643.143C384.453 643.143 383.82 643.344 383.281 643.721C382.742 644.098 382.322 644.633 382.074 645.26C381.826 645.886 381.761 646.576 381.888 647.241C382.014 647.906 382.326 648.516 382.784 648.996C383.243 649.475 383.826 649.802 384.462 649.934C385.098 650.067 385.756 649.999 386.355 649.739C386.954 649.48 387.466 649.04 387.826 648.476C388.186 647.913 388.378 647.25 388.378 646.572C388.378 645.662 388.033 644.79 387.418 644.147C386.804 643.504 385.97 643.143 385.101 643.143ZM412.952 643.143C412.304 643.143 411.67 643.344 411.131 643.721C410.592 644.098 410.172 644.633 409.924 645.26C409.676 645.886 409.612 646.576 409.738 647.241C409.864 647.906 410.176 648.516 410.635 648.996C411.093 649.475 411.677 649.802 412.312 649.934C412.948 650.067 413.607 649.999 414.205 649.739C414.804 649.48 415.316 649.04 415.676 648.476C416.036 647.913 416.228 647.25 416.228 646.572C416.228 645.662 415.883 644.79 415.268 644.147C414.654 643.504 413.821 643.143 412.952 643.143ZM440.802 643.143C440.154 643.143 439.52 643.344 438.982 643.721C438.443 644.098 438.023 644.633 437.775 645.26C437.527 645.886 437.462 646.576 437.588 647.241C437.715 647.906 438.027 648.516 438.485 648.996C438.943 649.475 439.527 649.802 440.163 649.934C440.798 650.067 441.457 649.999 442.056 649.739C442.654 649.48 443.166 649.04 443.526 648.476C443.886 647.913 444.078 647.25 444.078 646.572C444.078 645.662 443.733 644.79 443.119 644.147C442.504 643.504 441.671 643.143 440.802 643.143Z" fill="#FF7A00"/>
<path d="M470.864 506.863C470.864 507.541 470.672 508.204 470.312 508.768C469.952 509.331 469.44 509.771 468.841 510.03C468.243 510.29 467.584 510.358 466.948 510.225C466.313 510.093 465.729 509.767 465.271 509.287C464.812 508.808 464.5 508.197 464.374 507.532C464.247 506.867 464.312 506.177 464.56 505.551C464.808 504.924 465.228 504.389 465.767 504.012C466.306 503.635 466.939 503.434 467.587 503.434C468.456 503.434 469.29 503.796 469.904 504.438C470.519 505.081 470.864 505.953 470.864 506.863ZM495.438 503.434C494.79 503.434 494.156 503.635 493.617 504.012C493.079 504.389 492.659 504.924 492.411 505.551C492.163 506.177 492.098 506.867 492.224 507.532C492.351 508.197 492.663 508.808 493.121 509.287C493.579 509.767 494.163 510.093 494.798 510.225C495.434 510.358 496.093 510.29 496.692 510.03C497.29 509.771 497.802 509.331 498.162 508.768C498.522 508.204 498.714 507.541 498.714 506.863C498.714 505.953 498.369 505.081 497.755 504.438C497.14 503.796 496.307 503.434 495.438 503.434ZM523.288 510.291C523.936 510.291 524.57 510.09 525.108 509.713C525.647 509.337 526.067 508.801 526.315 508.175C526.563 507.548 526.628 506.859 526.502 506.194C526.375 505.529 526.063 504.918 525.605 504.438C525.147 503.959 524.563 503.632 523.927 503.5C523.292 503.368 522.633 503.436 522.034 503.695C521.435 503.955 520.924 504.394 520.564 504.958C520.204 505.522 520.011 506.185 520.011 506.863C520.011 507.772 520.357 508.644 520.971 509.287C521.586 509.93 522.419 510.291 523.288 510.291ZM467.587 532.576C466.939 532.576 466.306 532.777 465.767 533.154C465.228 533.531 464.808 534.066 464.56 534.692C464.312 535.319 464.247 536.008 464.374 536.673C464.5 537.338 464.812 537.949 465.271 538.429C465.729 538.908 466.313 539.235 466.948 539.367C467.584 539.499 468.243 539.431 468.841 539.172C469.44 538.912 469.952 538.473 470.312 537.909C470.672 537.345 470.864 536.683 470.864 536.004C470.864 535.095 470.519 534.223 469.904 533.58C469.29 532.937 468.456 532.576 467.587 532.576ZM495.438 532.576C494.79 532.576 494.156 532.777 493.617 533.154C493.079 533.531 492.659 534.066 492.411 534.692C492.163 535.319 492.098 536.008 492.224 536.673C492.351 537.338 492.663 537.949 493.121 538.429C493.579 538.908 494.163 539.235 494.798 539.367C495.434 539.499 496.093 539.431 496.692 539.172C497.29 538.912 497.802 538.473 498.162 537.909C498.522 537.345 498.714 536.683 498.714 536.004C498.714 535.095 498.369 534.223 497.755 533.58C497.14 532.937 496.307 532.576 495.438 532.576ZM523.288 532.576C522.64 532.576 522.006 532.777 521.468 533.154C520.929 533.531 520.509 534.066 520.261 534.692C520.013 535.319 519.948 536.008 520.074 536.673C520.201 537.338 520.513 537.949 520.971 538.429C521.429 538.908 522.013 539.235 522.649 539.367C523.284 539.499 523.943 539.431 524.542 539.172C525.141 538.912 525.652 538.473 526.012 537.909C526.372 537.345 526.565 536.683 526.565 536.004C526.565 535.095 526.219 534.223 525.605 533.58C524.99 532.937 524.157 532.576 523.288 532.576ZM467.587 561.718C466.939 561.718 466.306 561.919 465.767 562.296C465.228 562.672 464.808 563.208 464.56 563.834C464.312 564.461 464.247 565.15 464.374 565.815C464.5 566.48 464.812 567.091 465.271 567.57C465.729 568.05 466.313 568.376 466.948 568.509C467.584 568.641 468.243 568.573 468.841 568.314C469.44 568.054 469.952 567.615 470.312 567.051C470.672 566.487 470.864 565.824 470.864 565.146C470.864 564.237 470.519 563.365 469.904 562.722C469.29 562.079 468.456 561.718 467.587 561.718ZM495.438 561.718C494.79 561.718 494.156 561.919 493.617 562.296C493.079 562.672 492.659 563.208 492.411 563.834C492.163 564.461 492.098 565.15 492.224 565.815C492.351 566.48 492.663 567.091 493.121 567.57C493.579 568.05 494.163 568.376 494.798 568.509C495.434 568.641 496.093 568.573 496.692 568.314C497.29 568.054 497.802 567.615 498.162 567.051C498.522 566.487 498.714 565.824 498.714 565.146C498.714 564.237 498.369 563.365 497.755 562.722C497.14 562.079 496.307 561.718 495.438 561.718ZM523.288 561.718C522.64 561.718 522.006 561.919 521.468 562.296C520.929 562.672 520.509 563.208 520.261 563.834C520.013 564.461 519.948 565.15 520.074 565.815C520.201 566.48 520.513 567.091 520.971 567.57C521.429 568.05 522.013 568.376 522.649 568.509C523.284 568.641 523.943 568.573 524.542 568.314C525.141 568.054 525.652 567.615 526.012 567.051C526.372 566.487 526.565 565.824 526.565 565.146C526.565 564.237 526.219 563.365 525.605 562.722C524.99 562.079 524.157 561.718 523.288 561.718Z" fill="#FF7A00"/>
<path d="M470.864 588.288C470.864 588.966 470.672 589.629 470.312 590.193C469.952 590.757 469.44 591.196 468.841 591.456C468.243 591.715 467.584 591.783 466.948 591.651C466.313 591.519 465.729 591.192 465.271 590.713C464.812 590.233 464.5 589.622 464.374 588.957C464.247 588.292 464.312 587.603 464.56 586.976C464.808 586.35 465.228 585.814 465.767 585.438C466.306 585.061 466.939 584.86 467.587 584.86C468.456 584.86 469.29 585.221 469.904 585.864C470.519 586.507 470.864 587.379 470.864 588.288ZM495.438 584.86C494.79 584.86 494.156 585.061 493.617 585.438C493.079 585.814 492.659 586.35 492.411 586.976C492.163 587.603 492.098 588.292 492.224 588.957C492.351 589.622 492.663 590.233 493.121 590.713C493.579 591.192 494.163 591.519 494.798 591.651C495.434 591.783 496.093 591.715 496.692 591.456C497.29 591.196 497.802 590.757 498.162 590.193C498.522 589.629 498.714 588.966 498.714 588.288C498.714 587.379 498.369 586.507 497.755 585.864C497.14 585.221 496.307 584.86 495.438 584.86ZM523.288 591.717C523.936 591.717 524.57 591.516 525.108 591.139C525.647 590.762 526.067 590.227 526.315 589.6C526.563 588.974 526.628 588.284 526.502 587.619C526.375 586.954 526.063 586.344 525.605 585.864C525.147 585.385 524.563 585.058 523.927 584.926C523.292 584.793 522.633 584.861 522.034 585.121C521.435 585.38 520.924 585.82 520.564 586.384C520.204 586.947 520.011 587.61 520.011 588.288C520.011 589.198 520.357 590.07 520.971 590.713C521.586 591.356 522.419 591.717 523.288 591.717ZM467.587 614.002C466.939 614.002 466.306 614.203 465.767 614.579C465.228 614.956 464.808 615.492 464.56 616.118C464.312 616.744 464.247 617.434 464.374 618.099C464.5 618.764 464.812 619.375 465.271 619.854C465.729 620.334 466.313 620.66 466.948 620.793C467.584 620.925 468.243 620.857 468.841 620.597C469.44 620.338 469.952 619.899 470.312 619.335C470.672 618.771 470.864 618.108 470.864 617.43C470.864 616.521 470.519 615.649 469.904 615.006C469.29 614.363 468.456 614.002 467.587 614.002ZM495.438 614.002C494.79 614.002 494.156 614.203 493.617 614.579C493.079 614.956 492.659 615.492 492.411 616.118C492.163 616.744 492.098 617.434 492.224 618.099C492.351 618.764 492.663 619.375 493.121 619.854C493.579 620.334 494.163 620.66 494.798 620.793C495.434 620.925 496.093 620.857 496.692 620.597C497.29 620.338 497.802 619.899 498.162 619.335C498.522 618.771 498.714 618.108 498.714 617.43C498.714 616.521 498.369 615.649 497.755 615.006C497.14 614.363 496.307 614.002 495.438 614.002ZM523.288 614.002C522.64 614.002 522.006 614.203 521.468 614.579C520.929 614.956 520.509 615.492 520.261 616.118C520.013 616.744 519.948 617.434 520.074 618.099C520.201 618.764 520.513 619.375 520.971 619.854C521.429 620.334 522.013 620.66 522.649 620.793C523.284 620.925 523.943 620.857 524.542 620.597C525.141 620.338 525.652 619.899 526.012 619.335C526.372 618.771 526.565 618.108 526.565 617.43C526.565 616.521 526.219 615.649 525.605 615.006C524.99 614.363 524.157 614.002 523.288 614.002ZM467.587 643.143C466.939 643.143 466.306 643.344 465.767 643.721C465.228 644.098 464.808 644.633 464.56 645.26C464.312 645.886 464.247 646.576 464.374 647.241C464.5 647.906 464.812 648.516 465.271 648.996C465.729 649.475 466.313 649.802 466.948 649.934C467.584 650.067 468.243 649.999 468.841 649.739C469.44 649.48 469.952 649.04 470.312 648.476C470.672 647.913 470.864 647.25 470.864 646.572C470.864 645.662 470.519 644.79 469.904 644.147C469.29 643.504 468.456 643.143 467.587 643.143ZM495.438 643.143C494.79 643.143 494.156 643.344 493.617 643.721C493.079 644.098 492.659 644.633 492.411 645.26C492.163 645.886 492.098 646.576 492.224 647.241C492.351 647.906 492.663 648.516 493.121 648.996C493.579 649.475 494.163 649.802 494.798 649.934C495.434 650.067 496.093 649.999 496.692 649.739C497.29 649.48 497.802 649.04 498.162 648.476C498.522 647.913 498.714 647.25 498.714 646.572C498.714 645.662 498.369 644.79 497.755 644.147C497.14 643.504 496.307 643.143 495.438 643.143ZM523.288 643.143C522.64 643.143 522.006 643.344 521.468 643.721C520.929 644.098 520.509 644.633 520.261 645.26C520.013 645.886 519.948 646.576 520.074 647.241C520.201 647.906 520.513 648.516 520.971 648.996C521.429 649.475 522.013 649.802 522.649 649.934C523.284 650.067 523.943 649.999 524.542 649.739C525.141 649.48 525.652 649.04 526.012 648.476C526.372 647.913 526.565 647.25 526.565 646.572C526.565 645.662 526.219 644.79 525.605 644.147C524.99 643.504 524.157 643.143 523.288 643.143Z" fill="#FF7A00"/>
<path d="M45.4991 236.724C45.4991 237.402 45.307 238.065 44.9469 238.629C44.5869 239.193 44.0752 239.632 43.4765 239.892C42.8778 240.151 42.219 240.219 41.5834 240.087C40.9478 239.954 40.364 239.628 39.9058 239.148C39.4475 238.669 39.1355 238.058 39.0091 237.393C38.8826 236.728 38.9475 236.039 39.1955 235.412C39.4435 234.786 39.8635 234.25 40.4023 233.873C40.9411 233.497 41.5746 233.296 42.2226 233.296C43.0916 233.296 43.925 233.657 44.5395 234.3C45.1539 234.943 45.4991 235.815 45.4991 236.724ZM70.0729 233.296C69.4249 233.296 68.7914 233.497 68.2526 233.873C67.7138 234.25 67.2938 234.786 67.0458 235.412C66.7978 236.039 66.733 236.728 66.8594 237.393C66.9858 238.058 67.2979 238.669 67.7561 239.148C68.2143 239.628 68.7981 239.954 69.4337 240.087C70.0693 240.219 70.7281 240.151 71.3268 239.892C71.9255 239.632 72.4372 239.193 72.7973 238.629C73.1573 238.065 73.3494 237.402 73.3494 236.724C73.3494 235.815 73.0042 234.943 72.3898 234.3C71.7753 233.657 70.9419 233.296 70.0729 233.296ZM97.9233 240.153C98.5713 240.153 99.2048 239.951 99.7436 239.575C100.282 239.198 100.702 238.663 100.95 238.036C101.198 237.41 101.263 236.72 101.137 236.055C101.01 235.39 100.698 234.779 100.24 234.3C99.7819 233.82 99.1981 233.494 98.5625 233.362C97.9269 233.229 97.2681 233.297 96.6694 233.557C96.0707 233.816 95.559 234.256 95.1989 234.819C94.8389 235.383 94.6467 236.046 94.6467 236.724C94.6467 237.633 94.9919 238.505 95.6064 239.148C96.2209 239.791 97.0543 240.153 97.9233 240.153ZM42.2226 262.437C41.5746 262.437 40.9411 262.638 40.4023 263.015C39.8635 263.392 39.4435 263.927 39.1955 264.554C38.9475 265.18 38.8826 265.87 39.0091 266.535C39.1355 267.2 39.4475 267.811 39.9058 268.29C40.364 268.77 40.9478 269.096 41.5834 269.228C42.219 269.361 42.8778 269.293 43.4765 269.033C44.0752 268.774 44.5869 268.334 44.9469 267.771C45.307 267.207 45.4991 266.544 45.4991 265.866C45.4991 264.957 45.1539 264.084 44.5395 263.442C43.925 262.799 43.0916 262.437 42.2226 262.437ZM70.0729 262.437C69.4249 262.437 68.7914 262.638 68.2526 263.015C67.7138 263.392 67.2938 263.927 67.0458 264.554C66.7978 265.18 66.733 265.87 66.8594 266.535C66.9858 267.2 67.2979 267.811 67.7561 268.29C68.2143 268.77 68.7981 269.096 69.4337 269.228C70.0693 269.361 70.7281 269.293 71.3268 269.033C71.9255 268.774 72.4372 268.334 72.7973 267.771C73.1573 267.207 73.3494 266.544 73.3494 265.866C73.3494 264.957 73.0042 264.084 72.3898 263.442C71.7753 262.799 70.9419 262.437 70.0729 262.437ZM97.9233 262.437C97.2752 262.437 96.6417 262.638 96.1029 263.015C95.5641 263.392 95.1441 263.927 94.8962 264.554C94.6482 265.18 94.5833 265.87 94.7097 266.535C94.8361 267.2 95.1482 267.811 95.6064 268.29C96.0646 268.77 96.6485 269.096 97.284 269.228C97.9196 269.361 98.5784 269.293 99.1771 269.033C99.7758 268.774 100.288 268.334 100.648 267.771C101.008 267.207 101.2 266.544 101.2 265.866C101.2 264.957 100.855 264.084 100.24 263.442C99.6256 262.799 98.7922 262.437 97.9233 262.437ZM42.2226 291.579C41.5746 291.579 40.9411 291.78 40.4023 292.157C39.8635 292.534 39.4435 293.069 39.1955 293.695C38.9475 294.322 38.8826 295.011 39.0091 295.676C39.1355 296.341 39.4475 296.952 39.9058 297.432C40.364 297.911 40.9478 298.238 41.5834 298.37C42.219 298.502 42.8778 298.434 43.4765 298.175C44.0752 297.915 44.5869 297.476 44.9469 296.912C45.307 296.348 45.4991 295.686 45.4991 295.007C45.4991 294.098 45.1539 293.226 44.5395 292.583C43.925 291.94 43.0916 291.579 42.2226 291.579ZM70.0729 291.579C69.4249 291.579 68.7914 291.78 68.2526 292.157C67.7138 292.534 67.2938 293.069 67.0458 293.695C66.7978 294.322 66.733 295.011 66.8594 295.676C66.9858 296.341 67.2979 296.952 67.7561 297.432C68.2143 297.911 68.7981 298.238 69.4337 298.37C70.0693 298.502 70.7281 298.434 71.3268 298.175C71.9255 297.915 72.4372 297.476 72.7973 296.912C73.1573 296.348 73.3494 295.686 73.3494 295.007C73.3494 294.098 73.0042 293.226 72.3898 292.583C71.7753 291.94 70.9419 291.579 70.0729 291.579ZM97.9233 291.579C97.2752 291.579 96.6417 291.78 96.1029 292.157C95.5641 292.534 95.1441 293.069 94.8962 293.695C94.6482 294.322 94.5833 295.011 94.7097 295.676C94.8361 296.341 95.1482 296.952 95.6064 297.432C96.0646 297.911 96.6485 298.238 97.284 298.37C97.9196 298.502 98.5784 298.434 99.1771 298.175C99.7758 297.915 100.288 297.476 100.648 296.912C101.008 296.348 101.2 295.686 101.2 295.007C101.2 294.098 100.855 293.226 100.24 292.583C99.6256 291.94 98.7922 291.579 97.9233 291.579Z" fill="#FF7A00"/>
<path d="M45.4991 319.778C45.4991 320.456 45.307 321.119 44.9469 321.683C44.5869 322.247 44.0752 322.686 43.4765 322.946C42.8778 323.205 42.219 323.273 41.5834 323.141C40.9478 323.008 40.364 322.682 39.9058 322.202C39.4475 321.723 39.1355 321.112 39.0091 320.447C38.8826 319.782 38.9475 319.093 39.1955 318.466C39.4435 317.84 39.8635 317.304 40.4023 316.927C40.9411 316.551 41.5746 316.35 42.2226 316.35C43.0916 316.35 43.925 316.711 44.5395 317.354C45.1539 317.997 45.4991 318.869 45.4991 319.778ZM70.0729 316.35C69.4249 316.35 68.7914 316.551 68.2526 316.927C67.7138 317.304 67.2938 317.84 67.0458 318.466C66.7978 319.093 66.733 319.782 66.8594 320.447C66.9858 321.112 67.2979 321.723 67.7561 322.202C68.2143 322.682 68.7981 323.008 69.4337 323.141C70.0693 323.273 70.7281 323.205 71.3268 322.946C71.9255 322.686 72.4372 322.247 72.7973 321.683C73.1573 321.119 73.3494 320.456 73.3494 319.778C73.3494 318.869 73.0042 317.997 72.3898 317.354C71.7753 316.711 70.9419 316.35 70.0729 316.35ZM97.9233 323.206C98.5713 323.206 99.2048 323.005 99.7436 322.629C100.282 322.252 100.702 321.717 100.95 321.09C101.198 320.464 101.263 319.774 101.137 319.109C101.01 318.444 100.698 317.833 100.24 317.354C99.7819 316.874 99.1981 316.548 98.5625 316.415C97.9269 316.283 97.2681 316.351 96.6694 316.611C96.0707 316.87 95.559 317.31 95.1989 317.873C94.8389 318.437 94.6467 319.1 94.6467 319.778C94.6467 320.687 94.9919 321.559 95.6064 322.202C96.2209 322.845 97.0543 323.206 97.9233 323.206ZM42.2226 345.491C41.5746 345.491 40.9411 345.692 40.4023 346.069C39.8635 346.446 39.4435 346.981 39.1955 347.608C38.9475 348.234 38.8826 348.924 39.0091 349.589C39.1355 350.254 39.4475 350.865 39.9058 351.344C40.364 351.823 40.9478 352.15 41.5834 352.282C42.219 352.415 42.8778 352.347 43.4765 352.087C44.0752 351.828 44.5869 351.388 44.9469 350.824C45.307 350.261 45.4991 349.598 45.4991 348.92C45.4991 348.01 45.1539 347.138 44.5395 346.495C43.925 345.853 43.0916 345.491 42.2226 345.491ZM70.0729 345.491C69.4249 345.491 68.7914 345.692 68.2526 346.069C67.7138 346.446 67.2938 346.981 67.0458 347.608C66.7978 348.234 66.733 348.924 66.8594 349.589C66.9858 350.254 67.2979 350.865 67.7561 351.344C68.2143 351.823 68.7981 352.15 69.4337 352.282C70.0693 352.415 70.7281 352.347 71.3268 352.087C71.9255 351.828 72.4372 351.388 72.7973 350.824C73.1573 350.261 73.3494 349.598 73.3494 348.92C73.3494 348.01 73.0042 347.138 72.3898 346.495C71.7753 345.853 70.9419 345.491 70.0729 345.491ZM97.9233 345.491C97.2752 345.491 96.6417 345.692 96.1029 346.069C95.5641 346.446 95.1441 346.981 94.8962 347.608C94.6482 348.234 94.5833 348.924 94.7097 349.589C94.8361 350.254 95.1482 350.865 95.6064 351.344C96.0646 351.823 96.6485 352.15 97.284 352.282C97.9196 352.415 98.5784 352.347 99.1771 352.087C99.7758 351.828 100.288 351.388 100.648 350.824C101.008 350.261 101.2 349.598 101.2 348.92C101.2 348.01 100.855 347.138 100.24 346.495C99.6256 345.853 98.7922 345.491 97.9233 345.491ZM42.2226 374.633C41.5746 374.633 40.9411 374.834 40.4023 375.211C39.8635 375.588 39.4435 376.123 39.1955 376.749C38.9475 377.376 38.8826 378.065 39.0091 378.73C39.1355 379.395 39.4475 380.006 39.9058 380.486C40.364 380.965 40.9478 381.292 41.5834 381.424C42.219 381.556 42.8778 381.488 43.4765 381.229C44.0752 380.969 44.5869 380.53 44.9469 379.966C45.307 379.402 45.4991 378.74 45.4991 378.061C45.4991 377.152 45.1539 376.28 44.5395 375.637C43.925 374.994 43.0916 374.633 42.2226 374.633ZM70.0729 374.633C69.4249 374.633 68.7914 374.834 68.2526 375.211C67.7138 375.588 67.2938 376.123 67.0458 376.749C66.7978 377.376 66.733 378.065 66.8594 378.73C66.9858 379.395 67.2979 380.006 67.7561 380.486C68.2143 380.965 68.7981 381.292 69.4337 381.424C70.0693 381.556 70.7281 381.488 71.3268 381.229C71.9255 380.969 72.4372 380.53 72.7973 379.966C73.1573 379.402 73.3494 378.74 73.3494 378.061C73.3494 377.152 73.0042 376.28 72.3898 375.637C71.7753 374.994 70.9419 374.633 70.0729 374.633ZM97.9233 374.633C97.2752 374.633 96.6417 374.834 96.1029 375.211C95.5641 375.588 95.1441 376.123 94.8962 376.749C94.6482 377.376 94.5833 378.065 94.7097 378.73C94.8361 379.395 95.1482 380.006 95.6064 380.486C96.0646 380.965 96.6485 381.292 97.284 381.424C97.9196 381.556 98.5784 381.488 99.1771 381.229C99.7758 380.969 100.288 380.53 100.648 379.966C101.008 379.402 101.2 378.74 101.2 378.061C101.2 377.152 100.855 376.28 100.24 375.637C99.6256 374.994 98.7922 374.633 97.9233 374.633Z" fill="#FF7A00"/>
<path d="M127.985 238.353C127.985 239.031 127.793 239.693 127.433 240.257C127.073 240.821 126.561 241.26 125.963 241.52C125.364 241.779 124.705 241.847 124.07 241.715C123.434 241.583 122.85 241.256 122.392 240.777C121.934 240.297 121.622 239.686 121.495 239.021C121.369 238.356 121.434 237.667 121.682 237.041C121.93 236.414 122.35 235.879 122.888 235.502C123.427 235.125 124.061 234.924 124.709 234.924C125.578 234.924 126.411 235.285 127.026 235.928C127.64 236.571 127.985 237.443 127.985 238.353ZM152.559 234.924C151.911 234.924 151.278 235.125 150.739 235.502C150.2 235.879 149.78 236.414 149.532 237.041C149.284 237.667 149.219 238.356 149.345 239.021C149.472 239.686 149.784 240.297 150.242 240.777C150.7 241.256 151.284 241.583 151.92 241.715C152.555 241.847 153.214 241.779 153.813 241.52C154.412 241.26 154.923 240.821 155.283 240.257C155.643 239.693 155.836 239.031 155.836 238.353C155.836 237.443 155.49 236.571 154.876 235.928C154.261 235.285 153.428 234.924 152.559 234.924ZM180.409 241.781C181.057 241.781 181.691 241.58 182.23 241.203C182.769 240.826 183.188 240.291 183.436 239.665C183.684 239.038 183.749 238.349 183.623 237.684C183.496 237.019 183.184 236.408 182.726 235.928C182.268 235.449 181.684 235.122 181.049 234.99C180.413 234.858 179.754 234.926 179.155 235.185C178.557 235.445 178.045 235.884 177.685 236.448C177.325 237.012 177.133 237.674 177.133 238.353C177.133 239.262 177.478 240.134 178.093 240.777C178.707 241.42 179.54 241.781 180.409 241.781ZM124.709 264.066C124.061 264.066 123.427 264.267 122.888 264.644C122.35 265.02 121.93 265.556 121.682 266.182C121.434 266.809 121.369 267.498 121.495 268.163C121.622 268.828 121.934 269.439 122.392 269.918C122.85 270.398 123.434 270.724 124.07 270.857C124.705 270.989 125.364 270.921 125.963 270.662C126.561 270.402 127.073 269.963 127.433 269.399C127.793 268.835 127.985 268.172 127.985 267.494C127.985 266.585 127.64 265.713 127.026 265.07C126.411 264.427 125.578 264.066 124.709 264.066ZM152.559 264.066C151.911 264.066 151.278 264.267 150.739 264.644C150.2 265.02 149.78 265.556 149.532 266.182C149.284 266.809 149.219 267.498 149.345 268.163C149.472 268.828 149.784 269.439 150.242 269.918C150.7 270.398 151.284 270.724 151.92 270.857C152.555 270.989 153.214 270.921 153.813 270.662C154.412 270.402 154.923 269.963 155.283 269.399C155.643 268.835 155.836 268.172 155.836 267.494C155.836 266.585 155.49 265.713 154.876 265.07C154.261 264.427 153.428 264.066 152.559 264.066ZM180.409 264.066C179.761 264.066 179.128 264.267 178.589 264.644C178.05 265.02 177.63 265.556 177.382 266.182C177.134 266.809 177.069 267.498 177.196 268.163C177.322 268.828 177.634 269.439 178.093 269.918C178.551 270.398 179.135 270.724 179.77 270.857C180.406 270.989 181.065 270.921 181.663 270.662C182.262 270.402 182.774 269.963 183.134 269.399C183.494 268.835 183.686 268.172 183.686 267.494C183.686 266.585 183.341 265.713 182.726 265.07C182.112 264.427 181.278 264.066 180.409 264.066ZM124.709 293.207C124.061 293.207 123.427 293.409 122.888 293.785C122.35 294.162 121.93 294.697 121.682 295.324C121.434 295.95 121.369 296.64 121.495 297.305C121.622 297.97 121.934 298.581 122.392 299.06C122.85 299.54 123.434 299.866 124.07 299.998C124.705 300.131 125.364 300.063 125.963 299.803C126.561 299.544 127.073 299.104 127.433 298.541C127.793 297.977 127.985 297.314 127.985 296.636C127.985 295.727 127.64 294.855 127.026 294.212C126.411 293.569 125.578 293.207 124.709 293.207ZM152.559 293.207C151.911 293.207 151.278 293.409 150.739 293.785C150.2 294.162 149.78 294.697 149.532 295.324C149.284 295.95 149.219 296.64 149.345 297.305C149.472 297.97 149.784 298.581 150.242 299.06C150.7 299.54 151.284 299.866 151.92 299.998C152.555 300.131 153.214 300.063 153.813 299.803C154.412 299.544 154.923 299.104 155.283 298.541C155.643 297.977 155.836 297.314 155.836 296.636C155.836 295.727 155.49 294.855 154.876 294.212C154.261 293.569 153.428 293.207 152.559 293.207ZM180.409 293.207C179.761 293.207 179.128 293.409 178.589 293.785C178.05 294.162 177.63 294.697 177.382 295.324C177.134 295.95 177.069 296.64 177.196 297.305C177.322 297.97 177.634 298.581 178.093 299.06C178.551 299.54 179.135 299.866 179.77 299.998C180.406 300.131 181.065 300.063 181.663 299.803C182.262 299.544 182.774 299.104 183.134 298.541C183.494 297.977 183.686 297.314 183.686 296.636C183.686 295.727 183.341 294.855 182.726 294.212C182.112 293.569 181.278 293.207 180.409 293.207Z" fill="#FF7A00"/>
<path d="M127.985 319.778C127.985 320.456 127.793 321.119 127.433 321.683C127.073 322.247 126.561 322.686 125.963 322.946C125.364 323.205 124.705 323.273 124.07 323.141C123.434 323.008 122.85 322.682 122.392 322.202C121.934 321.723 121.622 321.112 121.495 320.447C121.369 319.782 121.434 319.093 121.682 318.466C121.93 317.84 122.35 317.304 122.888 316.927C123.427 316.551 124.061 316.35 124.709 316.35C125.578 316.35 126.411 316.711 127.026 317.354C127.64 317.997 127.985 318.869 127.985 319.778ZM152.559 316.35C151.911 316.35 151.278 316.551 150.739 316.927C150.2 317.304 149.78 317.84 149.532 318.466C149.284 319.093 149.219 319.782 149.345 320.447C149.472 321.112 149.784 321.723 150.242 322.202C150.7 322.682 151.284 323.008 151.92 323.141C152.555 323.273 153.214 323.205 153.813 322.946C154.412 322.686 154.923 322.247 155.283 321.683C155.643 321.119 155.836 320.456 155.836 319.778C155.836 318.869 155.49 317.997 154.876 317.354C154.261 316.711 153.428 316.35 152.559 316.35ZM180.409 323.206C181.057 323.206 181.691 323.005 182.23 322.629C182.769 322.252 183.188 321.717 183.436 321.09C183.684 320.464 183.749 319.774 183.623 319.109C183.496 318.444 183.184 317.833 182.726 317.354C182.268 316.874 181.684 316.548 181.049 316.415C180.413 316.283 179.754 316.351 179.155 316.611C178.557 316.87 178.045 317.31 177.685 317.873C177.325 318.437 177.133 319.1 177.133 319.778C177.133 320.687 177.478 321.559 178.093 322.202C178.707 322.845 179.54 323.206 180.409 323.206ZM124.709 345.491C124.061 345.491 123.427 345.692 122.888 346.069C122.35 346.446 121.93 346.981 121.682 347.608C121.434 348.234 121.369 348.924 121.495 349.589C121.622 350.254 121.934 350.865 122.392 351.344C122.85 351.823 123.434 352.15 124.07 352.282C124.705 352.415 125.364 352.347 125.963 352.087C126.561 351.828 127.073 351.388 127.433 350.824C127.793 350.261 127.985 349.598 127.985 348.92C127.985 348.01 127.64 347.138 127.026 346.495C126.411 345.853 125.578 345.491 124.709 345.491ZM152.559 345.491C151.911 345.491 151.278 345.692 150.739 346.069C150.2 346.446 149.78 346.981 149.532 347.608C149.284 348.234 149.219 348.924 149.345 349.589C149.472 350.254 149.784 350.865 150.242 351.344C150.7 351.823 151.284 352.15 151.92 352.282C152.555 352.415 153.214 352.347 153.813 352.087C154.412 351.828 154.923 351.388 155.283 350.824C155.643 350.261 155.836 349.598 155.836 348.92C155.836 348.01 155.49 347.138 154.876 346.495C154.261 345.853 153.428 345.491 152.559 345.491ZM180.409 345.491C179.761 345.491 179.128 345.692 178.589 346.069C178.05 346.446 177.63 346.981 177.382 347.608C177.134 348.234 177.069 348.924 177.196 349.589C177.322 350.254 177.634 350.865 178.093 351.344C178.551 351.823 179.135 352.15 179.77 352.282C180.406 352.415 181.065 352.347 181.663 352.087C182.262 351.828 182.774 351.388 183.134 350.824C183.494 350.261 183.686 349.598 183.686 348.92C183.686 348.01 183.341 347.138 182.726 346.495C182.112 345.853 181.278 345.491 180.409 345.491ZM124.709 374.633C124.061 374.633 123.427 374.834 122.888 375.211C122.35 375.588 121.93 376.123 121.682 376.749C121.434 377.376 121.369 378.065 121.495 378.73C121.622 379.395 121.934 380.006 122.392 380.486C122.85 380.965 123.434 381.292 124.07 381.424C124.705 381.556 125.364 381.488 125.963 381.229C126.561 380.969 127.073 380.53 127.433 379.966C127.793 379.402 127.985 378.74 127.985 378.061C127.985 377.152 127.64 376.28 127.026 375.637C126.411 374.994 125.578 374.633 124.709 374.633ZM152.559 374.633C151.911 374.633 151.278 374.834 150.739 375.211C150.2 375.588 149.78 376.123 149.532 376.749C149.284 377.376 149.219 378.065 149.345 378.73C149.472 379.395 149.784 380.006 150.242 380.486C150.7 380.965 151.284 381.292 151.92 381.424C152.555 381.556 153.214 381.488 153.813 381.229C154.412 380.969 154.923 380.53 155.283 379.966C155.643 379.402 155.836 378.74 155.836 378.061C155.836 377.152 155.49 376.28 154.876 375.637C154.261 374.994 153.428 374.633 152.559 374.633ZM180.409 374.633C179.761 374.633 179.128 374.834 178.589 375.211C178.05 375.588 177.63 376.123 177.382 376.749C177.134 377.376 177.069 378.065 177.196 378.73C177.322 379.395 177.634 380.006 178.093 380.486C178.551 380.965 179.135 381.292 179.77 381.424C180.406 381.556 181.065 381.488 181.663 381.229C182.262 380.969 182.774 380.53 183.134 379.966C183.494 379.402 183.686 378.74 183.686 378.061C183.686 377.152 183.341 376.28 182.726 375.637C182.112 374.994 181.278 374.633 180.409 374.633Z" fill="#FF7A00"/>
</svg>
