<svg width="80" height="80" viewBox="0 0 80 80" fill="none" xmlns="http://www.w3.org/2000/svg">
<path d="M3.62196 1.85078C3.62196 2.21683 3.51575 2.57466 3.31675 2.87902C3.11776 3.18338 2.83492 3.4206 2.50401 3.56068C2.1731 3.70076 1.80897 3.73741 1.45768 3.666C1.10638 3.59459 0.783695 3.41832 0.530425 3.15948C0.277155 2.90064 0.104675 2.57087 0.0347983 2.21185C-0.0350788 1.85283 0.000784663 1.4807 0.137853 1.14252C0.274922 0.804333 0.50704 0.51528 0.804854 0.311914C1.10267 0.108548 1.4528 9.97376e-07 1.81098 9.97376e-07C2.29128 9.97376e-07 2.75191 0.194994 3.09153 0.542082C3.43116 0.889171 3.62196 1.35992 3.62196 1.85078ZM17.2043 9.97376e-07C16.8461 9.97376e-07 16.496 0.108548 16.1982 0.311914C15.9004 0.51528 15.6682 0.804333 15.5312 1.14252C15.3941 1.4807 15.3582 1.85283 15.4281 2.21185C15.498 2.57087 15.6705 2.90064 15.9237 3.15948C16.177 3.41832 16.4997 3.59459 16.851 3.666C17.2023 3.73741 17.5664 3.70076 17.8973 3.56068C18.2282 3.4206 18.5111 3.18338 18.7101 2.87902C18.9091 2.57466 19.0153 2.21683 19.0153 1.85078C19.0153 1.35992 18.8245 0.889171 18.4849 0.542082C18.1452 0.194994 17.6846 9.97376e-07 17.2043 9.97376e-07ZM32.5976 3.70156C32.9558 3.70156 33.3059 3.59302 33.6037 3.38965C33.9016 3.18628 34.1337 2.89723 34.2707 2.55904C34.4078 2.22086 34.4437 1.84873 34.3738 1.48971C34.3039 1.1307 34.1314 0.800919 33.8782 0.542082C33.6249 0.283246 33.3022 0.106976 32.9509 0.0355631C32.5996 -0.0358497 32.2355 0.000801908 31.9046 0.140883C31.5737 0.280964 31.2908 0.518184 31.0918 0.822543C30.8928 1.1269 30.7866 1.48473 30.7866 1.85078C30.7866 2.34164 30.9774 2.81239 31.3171 3.15948C31.6567 3.50657 32.1173 3.70156 32.5976 3.70156ZM1.81098 15.7316C1.4528 15.7316 1.10267 15.8402 0.804854 16.0435C0.50704 16.2469 0.274922 16.536 0.137853 16.8742C0.000784663 17.2123 -0.0350788 17.5845 0.0347983 17.9435C0.104675 18.3025 0.277155 18.6323 0.530425 18.8911C0.783695 19.15 1.10638 19.3262 1.45768 19.3976C1.80897 19.469 2.1731 19.4324 2.50401 19.2923C2.83492 19.1522 3.11776 18.915 3.31675 18.6107C3.51575 18.3063 3.62196 17.9485 3.62196 17.5824C3.62196 17.0916 3.43116 16.6208 3.09153 16.2737C2.75191 15.9266 2.29128 15.7316 1.81098 15.7316ZM17.2043 15.7316C16.8461 15.7316 16.496 15.8402 16.1982 16.0435C15.9004 16.2469 15.6682 16.536 15.5312 16.8742C15.3941 17.2123 15.3582 17.5845 15.4281 17.9435C15.498 18.3025 15.6705 18.6323 15.9237 18.8911C16.177 19.15 16.4997 19.3262 16.851 19.3976C17.2023 19.469 17.5664 19.4324 17.8973 19.2923C18.2282 19.1522 18.5111 18.915 18.7101 18.6107C18.9091 18.3063 19.0153 17.9485 19.0153 17.5824C19.0153 17.0916 18.8245 16.6208 18.4849 16.2737C18.1452 15.9266 17.6846 15.7316 17.2043 15.7316ZM32.5976 15.7316C32.2394 15.7316 31.8893 15.8402 31.5915 16.0435C31.2937 16.2469 31.0616 16.536 30.9245 16.8742C30.7874 17.2123 30.7516 17.5845 30.8214 17.9435C30.8913 18.3025 31.0638 18.6323 31.3171 18.8911C31.5703 19.15 31.893 19.3262 32.2443 19.3976C32.5956 19.469 32.9597 19.4324 33.2906 19.2923C33.6216 19.1522 33.9044 18.915 34.1034 18.6107C34.3024 18.3063 34.4086 17.9485 34.4086 17.5824C34.4086 17.0916 34.2178 16.6208 33.8782 16.2737C33.5386 15.9266 33.0779 15.7316 32.5976 15.7316ZM1.81098 31.4633C1.4528 31.4633 1.10267 31.5718 0.804854 31.7752C0.50704 31.9785 0.274922 32.2676 0.137853 32.6058C0.000784663 32.944 -0.0350788 33.3161 0.0347983 33.6751C0.104675 34.0341 0.277155 34.3639 0.530425 34.6227C0.783695 34.8816 1.10638 35.0579 1.45768 35.1293C1.80897 35.2007 2.1731 35.164 2.50401 35.0239C2.83492 34.8839 3.11776 34.6466 3.31675 34.3423C3.51575 34.0379 3.62196 33.6801 3.62196 33.314C3.62196 32.8232 3.43116 32.3524 3.09153 32.0053C2.75191 31.6583 2.29128 31.4633 1.81098 31.4633ZM17.2043 31.4633C16.8461 31.4633 16.496 31.5718 16.1982 31.7752C15.9004 31.9785 15.6682 32.2676 15.5312 32.6058C15.3941 32.944 15.3582 33.3161 15.4281 33.6751C15.498 34.0341 15.6705 34.3639 15.9237 34.6227C16.177 34.8816 16.4997 35.0579 16.851 35.1293C17.2023 35.2007 17.5664 35.164 17.8973 35.0239C18.2282 34.8839 18.5111 34.6466 18.7101 34.3423C18.9091 34.0379 19.0153 33.6801 19.0153 33.314C19.0153 32.8232 18.8245 32.3524 18.4849 32.0053C18.1452 31.6583 17.6846 31.4633 17.2043 31.4633ZM32.5976 31.4633C32.2394 31.4633 31.8893 31.5718 31.5915 31.7752C31.2937 31.9785 31.0616 32.2676 30.9245 32.6058C30.7874 32.944 30.7516 33.3161 30.8214 33.6751C30.8913 34.0341 31.0638 34.3639 31.3171 34.6227C31.5703 34.8816 31.893 35.0579 32.2443 35.1293C32.5956 35.2007 32.9597 35.164 33.2906 35.0239C33.6216 34.8839 33.9044 34.6466 34.1034 34.3423C34.3024 34.0379 34.4086 33.6801 34.4086 33.314C34.4086 32.8232 34.2178 32.3524 33.8782 32.0053C33.5386 31.6583 33.0779 31.4633 32.5976 31.4633Z" fill="#FF7A00"/>
<path d="M3.62196 46.686C3.62196 47.052 3.51575 47.4099 3.31675 47.7142C3.11776 48.0186 2.83492 48.2558 2.50401 48.3959C2.1731 48.536 1.80897 48.5726 1.45768 48.5012C1.10638 48.4298 0.783695 48.2535 0.530425 47.9947C0.277155 47.7358 0.104675 47.4061 0.0347983 47.0471C-0.0350788 46.688 0.000784663 46.3159 0.137853 45.9777C0.274922 45.6395 0.50704 45.3505 0.804854 45.1471C1.10267 44.9438 1.4528 44.8352 1.81098 44.8352C2.29128 44.8352 2.75191 45.0302 3.09153 45.3773C3.43116 45.7244 3.62196 46.1951 3.62196 46.686ZM17.2043 44.8352C16.8461 44.8352 16.496 44.9438 16.1982 45.1471C15.9004 45.3505 15.6682 45.6395 15.5312 45.9777C15.3941 46.3159 15.3582 46.688 15.4281 47.0471C15.498 47.4061 15.6705 47.7358 15.9237 47.9947C16.177 48.2535 16.4997 48.4298 16.851 48.5012C17.2023 48.5726 17.5664 48.536 17.8973 48.3959C18.2282 48.2558 18.5111 48.0186 18.7101 47.7142C18.9091 47.4099 19.0153 47.052 19.0153 46.686C19.0153 46.1951 18.8245 45.7244 18.4849 45.3773C18.1452 45.0302 17.6846 44.8352 17.2043 44.8352ZM32.5976 48.5368C32.9558 48.5368 33.3059 48.4282 33.6037 48.2249C33.9016 48.0215 34.1337 47.7324 34.2707 47.3942C34.4078 47.0561 34.4437 46.6839 34.3738 46.3249C34.3039 45.9659 34.1314 45.6361 33.8782 45.3773C33.6249 45.1185 33.3022 44.9422 32.9509 44.8708C32.5996 44.7994 32.2355 44.836 31.9046 44.9761C31.5737 45.1162 31.2908 45.3534 31.0918 45.6577C30.8928 45.9621 30.7866 46.3199 30.7866 46.686C30.7866 47.1768 30.9774 47.6476 31.3171 47.9947C31.6567 48.3418 32.1173 48.5368 32.5976 48.5368ZM1.81098 60.5668C1.4528 60.5668 1.10267 60.6754 0.804854 60.8788C0.50704 61.0821 0.274922 61.3712 0.137853 61.7094C0.000784663 62.0475 -0.0350788 62.4197 0.0347983 62.7787C0.104675 63.1377 0.277155 63.4675 0.530425 63.7263C0.783695 63.9852 1.10638 64.1614 1.45768 64.2328C1.80897 64.3043 2.1731 64.2676 2.50401 64.1275C2.83492 63.9874 3.11776 63.7502 3.31675 63.4459C3.51575 63.1415 3.62196 62.7837 3.62196 62.4176C3.62196 61.9268 3.43116 61.456 3.09153 61.1089C2.75191 60.7618 2.29128 60.5668 1.81098 60.5668ZM17.2043 60.5668C16.8461 60.5668 16.496 60.6754 16.1982 60.8788C15.9004 61.0821 15.6682 61.3712 15.5312 61.7094C15.3941 62.0475 15.3582 62.4197 15.4281 62.7787C15.498 63.1377 15.6705 63.4675 15.9237 63.7263C16.177 63.9852 16.4997 64.1614 16.851 64.2328C17.2023 64.3043 17.5664 64.2676 17.8973 64.1275C18.2282 63.9874 18.5111 63.7502 18.7101 63.4459C18.9091 63.1415 19.0153 62.7837 19.0153 62.4176C19.0153 61.9268 18.8245 61.456 18.4849 61.1089C18.1452 60.7618 17.6846 60.5668 17.2043 60.5668ZM32.5976 60.5668C32.2394 60.5668 31.8893 60.6754 31.5915 60.8788C31.2937 61.0821 31.0616 61.3712 30.9245 61.7094C30.7874 62.0475 30.7516 62.4197 30.8214 62.7787C30.8913 63.1377 31.0638 63.4675 31.3171 63.7263C31.5703 63.9852 31.893 64.1614 32.2443 64.2328C32.5956 64.3043 32.9597 64.2676 33.2906 64.1275C33.6216 63.9874 33.9044 63.7502 34.1034 63.4459C34.3024 63.1415 34.4086 62.7837 34.4086 62.4176C34.4086 61.9268 34.2178 61.456 33.8782 61.1089C33.5386 60.7618 33.0779 60.5668 32.5976 60.5668ZM1.81098 76.2985C1.4528 76.2985 1.10267 76.407 0.804854 76.6104C0.50704 76.8138 0.274922 77.1028 0.137853 77.441C0.000784663 77.7792 -0.0350788 78.1513 0.0347983 78.5103C0.104675 78.8693 0.277155 79.1991 0.530425 79.458C0.783695 79.7168 1.10638 79.8931 1.45768 79.9645C1.80897 80.0359 2.1731 79.9992 2.50401 79.8592C2.83492 79.7191 3.11776 79.4819 3.31675 79.1775C3.51575 78.8731 3.62196 78.5153 3.62196 78.1493C3.62196 77.6584 3.43116 77.1876 3.09153 76.8406C2.75191 76.4935 2.29128 76.2985 1.81098 76.2985ZM17.2043 76.2985C16.8461 76.2985 16.496 76.407 16.1982 76.6104C15.9004 76.8138 15.6682 77.1028 15.5312 77.441C15.3941 77.7792 15.3582 78.1513 15.4281 78.5103C15.498 78.8693 15.6705 79.1991 15.9237 79.458C16.177 79.7168 16.4997 79.8931 16.851 79.9645C17.2023 80.0359 17.5664 79.9992 17.8973 79.8592C18.2282 79.7191 18.5111 79.4819 18.7101 79.1775C18.9091 78.8731 19.0153 78.5153 19.0153 78.1493C19.0153 77.6584 18.8245 77.1876 18.4849 76.8406C18.1452 76.4935 17.6846 76.2985 17.2043 76.2985ZM32.5976 76.2985C32.2394 76.2985 31.8893 76.407 31.5915 76.6104C31.2937 76.8138 31.0616 77.1028 30.9245 77.441C30.7874 77.7792 30.7516 78.1513 30.8214 78.5103C30.8913 78.8693 31.0638 79.1991 31.3171 79.458C31.5703 79.7168 31.893 79.8931 32.2443 79.9645C32.5956 80.0359 32.9597 79.9992 33.2906 79.8592C33.6216 79.7191 33.9044 79.4819 34.1034 79.1775C34.3024 78.8731 34.4086 78.5153 34.4086 78.1493C34.4086 77.6584 34.2178 77.1876 33.8782 76.8406C33.5386 76.4935 33.0779 76.2985 32.5976 76.2985Z" fill="#FF7A00"/>
<path d="M49.2134 2.72993C49.2134 3.09598 49.1071 3.45381 48.9082 3.75817C48.7092 4.06253 48.4263 4.29975 48.0954 4.43983C47.7645 4.57991 47.4004 4.61656 47.0491 4.54515C46.6978 4.47374 46.3751 4.29747 46.1218 4.03863C45.8686 3.77979 45.6961 3.45002 45.6262 3.091C45.5563 2.73199 45.5922 2.35986 45.7293 2.02167C45.8663 1.68348 46.0984 1.39443 46.3963 1.19106C46.6941 0.987698 47.0442 0.879151 47.4024 0.879151C47.8827 0.879151 48.3433 1.07414 48.6829 1.42123C49.0226 1.76832 49.2134 2.23907 49.2134 2.72993ZM62.7957 0.879151C62.4375 0.879151 62.0874 0.987698 61.7896 1.19106C61.4918 1.39443 61.2596 1.68348 61.1226 2.02167C60.9855 2.35986 60.9496 2.73199 61.0195 3.091C61.0894 3.45002 61.2619 3.77979 61.5151 4.03863C61.7684 4.29747 62.0911 4.47374 62.4424 4.54515C62.7937 4.61656 63.1578 4.57991 63.4887 4.43983C63.8196 4.29975 64.1025 4.06253 64.3015 3.75817C64.5005 3.45381 64.6067 3.09598 64.6067 2.72993C64.6067 2.23907 64.4159 1.76832 64.0763 1.42123C63.7366 1.07414 63.276 0.879151 62.7957 0.879151ZM78.189 4.58071C78.5472 4.58071 78.8973 4.47217 79.1951 4.2688C79.493 4.06543 79.7251 3.77638 79.8621 3.43819C79.9992 3.10001 80.0351 2.72788 79.9652 2.36886C79.8953 2.00985 79.7228 1.68007 79.4696 1.42123C79.2163 1.1624 78.8936 0.986126 78.5423 0.914713C78.191 0.843301 77.8269 0.879952 77.496 1.02003C77.1651 1.16011 76.8822 1.39733 76.6832 1.70169C76.4842 2.00605 76.378 2.36388 76.378 2.72993C76.378 3.22079 76.5688 3.69154 76.9085 4.03863C77.2481 4.38572 77.7087 4.58071 78.189 4.58071ZM47.4024 16.6108C47.0442 16.6108 46.6941 16.7193 46.3963 16.9227C46.0984 17.1261 45.8663 17.4151 45.7293 17.7533C45.5922 18.0915 45.5563 18.4636 45.6262 18.8226C45.6961 19.1817 45.8686 19.5114 46.1218 19.7703C46.3751 20.0291 46.6978 20.2054 47.0491 20.2768C47.4004 20.3482 47.7645 20.3115 48.0954 20.1715C48.4263 20.0314 48.7092 19.7942 48.9082 19.4898C49.1071 19.1854 49.2134 18.8276 49.2134 18.4616C49.2134 17.9707 49.0226 17.5 48.6829 17.1529C48.3433 16.8058 47.8827 16.6108 47.4024 16.6108ZM62.7957 16.6108C62.4375 16.6108 62.0874 16.7193 61.7896 16.9227C61.4918 17.1261 61.2596 17.4151 61.1226 17.7533C60.9855 18.0915 60.9496 18.4636 61.0195 18.8226C61.0894 19.1817 61.2619 19.5114 61.5151 19.7703C61.7684 20.0291 62.0911 20.2054 62.4424 20.2768C62.7937 20.3482 63.1578 20.3115 63.4887 20.1715C63.8196 20.0314 64.1025 19.7942 64.3015 19.4898C64.5005 19.1854 64.6067 18.8276 64.6067 18.4616C64.6067 17.9707 64.4159 17.5 64.0763 17.1529C63.7366 16.8058 63.276 16.6108 62.7957 16.6108ZM78.189 16.6108C77.8308 16.6108 77.4807 16.7193 77.1829 16.9227C76.8851 17.1261 76.653 17.4151 76.5159 17.7533C76.3788 18.0915 76.343 18.4636 76.4128 18.8226C76.4827 19.1817 76.6552 19.5114 76.9085 19.7703C77.1617 20.0291 77.4844 20.2054 77.8357 20.2768C78.187 20.3482 78.5511 20.3115 78.882 20.1715C79.213 20.0314 79.4958 19.7942 79.6948 19.4898C79.8938 19.1854 80 18.8276 80 18.4616C80 17.9707 79.8092 17.5 79.4696 17.1529C79.13 16.8058 78.6693 16.6108 78.189 16.6108ZM47.4024 32.3424C47.0442 32.3424 46.6941 32.451 46.3963 32.6543C46.0984 32.8577 45.8663 33.1468 45.7293 33.4849C45.5922 33.8231 45.5563 34.1953 45.6262 34.5543C45.6961 34.9133 45.8686 35.2431 46.1218 35.5019C46.3751 35.7607 46.6978 35.937 47.0491 36.0084C47.4004 36.0798 47.7645 36.0432 48.0954 35.9031C48.4263 35.763 48.7092 35.5258 48.9082 35.2214C49.1071 34.9171 49.2134 34.5592 49.2134 34.1932C49.2134 33.7023 49.0226 33.2316 48.6829 32.8845C48.3433 32.5374 47.8827 32.3424 47.4024 32.3424ZM62.7957 32.3424C62.4375 32.3424 62.0874 32.451 61.7896 32.6543C61.4918 32.8577 61.2596 33.1468 61.1226 33.4849C60.9855 33.8231 60.9496 34.1953 61.0195 34.5543C61.0894 34.9133 61.2619 35.2431 61.5151 35.5019C61.7684 35.7607 62.0911 35.937 62.4424 36.0084C62.7937 36.0798 63.1578 36.0432 63.4887 35.9031C63.8196 35.763 64.1025 35.5258 64.3015 35.2214C64.5005 34.9171 64.6067 34.5592 64.6067 34.1932C64.6067 33.7023 64.4159 33.2316 64.0763 32.8845C63.7366 32.5374 63.276 32.3424 62.7957 32.3424ZM78.189 32.3424C77.8308 32.3424 77.4807 32.451 77.1829 32.6543C76.8851 32.8577 76.653 33.1468 76.5159 33.4849C76.3788 33.8231 76.343 34.1953 76.4128 34.5543C76.4827 34.9133 76.6552 35.2431 76.9085 35.5019C77.1617 35.7607 77.4844 35.937 77.8357 36.0084C78.187 36.0798 78.5511 36.0432 78.882 35.9031C79.213 35.763 79.4958 35.5258 79.6948 35.2214C79.8938 34.9171 80 34.5592 80 34.1932C80 33.7023 79.8092 33.2316 79.4696 32.8845C79.13 32.5374 78.6693 32.3424 78.189 32.3424Z" fill="#FF7A00"/>
<path d="M49.2134 46.686C49.2134 47.052 49.1071 47.4099 48.9082 47.7142C48.7092 48.0186 48.4263 48.2558 48.0954 48.3959C47.7645 48.536 47.4004 48.5726 47.0491 48.5012C46.6978 48.4298 46.3751 48.2535 46.1218 47.9947C45.8686 47.7358 45.6961 47.4061 45.6262 47.0471C45.5563 46.688 45.5922 46.3159 45.7293 45.9777C45.8663 45.6395 46.0984 45.3505 46.3963 45.1471C46.6941 44.9438 47.0442 44.8352 47.4024 44.8352C47.8827 44.8352 48.3433 45.0302 48.6829 45.3773C49.0226 45.7244 49.2134 46.1951 49.2134 46.686ZM62.7957 44.8352C62.4375 44.8352 62.0874 44.9438 61.7896 45.1471C61.4918 45.3505 61.2596 45.6395 61.1226 45.9777C60.9855 46.3159 60.9496 46.688 61.0195 47.0471C61.0894 47.4061 61.2619 47.7358 61.5151 47.9947C61.7684 48.2535 62.0911 48.4298 62.4424 48.5012C62.7937 48.5726 63.1578 48.536 63.4887 48.3959C63.8196 48.2558 64.1025 48.0186 64.3015 47.7142C64.5005 47.4099 64.6067 47.052 64.6067 46.686C64.6067 46.1951 64.4159 45.7244 64.0763 45.3773C63.7366 45.0302 63.276 44.8352 62.7957 44.8352ZM78.189 48.5368C78.5472 48.5368 78.8973 48.4282 79.1951 48.2249C79.493 48.0215 79.7251 47.7324 79.8621 47.3942C79.9992 47.0561 80.0351 46.6839 79.9652 46.3249C79.8953 45.9659 79.7228 45.6361 79.4696 45.3773C79.2163 45.1185 78.8936 44.9422 78.5423 44.8708C78.191 44.7994 77.8269 44.836 77.496 44.9761C77.1651 45.1162 76.8822 45.3534 76.6832 45.6577C76.4842 45.9621 76.378 46.3199 76.378 46.686C76.378 47.1768 76.5688 47.6476 76.9085 47.9947C77.2481 48.3418 77.7087 48.5368 78.189 48.5368ZM47.4024 60.5668C47.0442 60.5668 46.6941 60.6754 46.3963 60.8788C46.0984 61.0821 45.8663 61.3712 45.7293 61.7094C45.5922 62.0475 45.5563 62.4197 45.6262 62.7787C45.6961 63.1377 45.8686 63.4675 46.1218 63.7263C46.3751 63.9852 46.6978 64.1614 47.0491 64.2328C47.4004 64.3043 47.7645 64.2676 48.0954 64.1275C48.4263 63.9874 48.7092 63.7502 48.9082 63.4459C49.1071 63.1415 49.2134 62.7837 49.2134 62.4176C49.2134 61.9268 49.0226 61.456 48.6829 61.1089C48.3433 60.7618 47.8827 60.5668 47.4024 60.5668ZM62.7957 60.5668C62.4375 60.5668 62.0874 60.6754 61.7896 60.8788C61.4918 61.0821 61.2596 61.3712 61.1226 61.7094C60.9855 62.0475 60.9496 62.4197 61.0195 62.7787C61.0894 63.1377 61.2619 63.4675 61.5151 63.7263C61.7684 63.9852 62.0911 64.1614 62.4424 64.2328C62.7937 64.3043 63.1578 64.2676 63.4887 64.1275C63.8196 63.9874 64.1025 63.7502 64.3015 63.4459C64.5005 63.1415 64.6067 62.7837 64.6067 62.4176C64.6067 61.9268 64.4159 61.456 64.0763 61.1089C63.7366 60.7618 63.276 60.5668 62.7957 60.5668ZM78.189 60.5668C77.8308 60.5668 77.4807 60.6754 77.1829 60.8788C76.8851 61.0821 76.653 61.3712 76.5159 61.7094C76.3788 62.0475 76.343 62.4197 76.4128 62.7787C76.4827 63.1377 76.6552 63.4675 76.9085 63.7263C77.1617 63.9852 77.4844 64.1614 77.8357 64.2328C78.187 64.3043 78.5511 64.2676 78.882 64.1275C79.213 63.9874 79.4958 63.7502 79.6948 63.4459C79.8938 63.1415 80 62.7837 80 62.4176C80 61.9268 79.8092 61.456 79.4696 61.1089C79.13 60.7618 78.6693 60.5668 78.189 60.5668ZM47.4024 76.2985C47.0442 76.2985 46.6941 76.407 46.3963 76.6104C46.0984 76.8138 45.8663 77.1028 45.7293 77.441C45.5922 77.7792 45.5563 78.1513 45.6262 78.5103C45.6961 78.8693 45.8686 79.1991 46.1218 79.458C46.3751 79.7168 46.6978 79.8931 47.0491 79.9645C47.4004 80.0359 47.7645 79.9992 48.0954 79.8592C48.4263 79.7191 48.7092 79.4819 48.9082 79.1775C49.1071 78.8731 49.2134 78.5153 49.2134 78.1493C49.2134 77.6584 49.0226 77.1876 48.6829 76.8406C48.3433 76.4935 47.8827 76.2985 47.4024 76.2985ZM62.7957 76.2985C62.4375 76.2985 62.0874 76.407 61.7896 76.6104C61.4918 76.8138 61.2596 77.1028 61.1226 77.441C60.9855 77.7792 60.9496 78.1513 61.0195 78.5103C61.0894 78.8693 61.2619 79.1991 61.5151 79.458C61.7684 79.7168 62.0911 79.8931 62.4424 79.9645C62.7937 80.0359 63.1578 79.9992 63.4887 79.8592C63.8196 79.7191 64.1025 79.4819 64.3015 79.1775C64.5005 78.8731 64.6067 78.5153 64.6067 78.1493C64.6067 77.6584 64.4159 77.1876 64.0763 76.8406C63.7366 76.4935 63.276 76.2985 62.7957 76.2985ZM78.189 76.2985C77.8308 76.2985 77.4807 76.407 77.1829 76.6104C76.8851 76.8138 76.653 77.1028 76.5159 77.441C76.3788 77.7792 76.343 78.1513 76.4128 78.5103C76.4827 78.8693 76.6552 79.1991 76.9085 79.458C77.1617 79.7168 77.4844 79.8931 77.8357 79.9645C78.187 80.0359 78.5511 79.9992 78.882 79.8592C79.213 79.7191 79.4958 79.4819 79.6948 79.1775C79.8938 78.8731 80 78.5153 80 78.1493C80 77.6584 79.8092 77.1876 79.4696 76.8406C79.13 76.4935 78.6693 76.2985 78.189 76.2985Z" fill="#FF7A00"/>
</svg>
